<?xml version="1.0" encoding="UTF-8" standalone="no"?>
<svg xmlns="http://www.w3.org/2000/svg" xmlns:xlink="http://www.w3.org/1999/xlink" version="1.1" width="450" height="820">
	<defs>
		<style type="text/css">
			<![CDATA[
			
			.icon {
				stroke: none;
			}
			
			/**
			 * Colors
			 */
			.icon-set--orange .icon {
				fill: #ea650d;
			}
			
			.icon-set--white .icon {
				fill: #fff;
			}

			.icon-set--black .icon {
				fill: #000;
			}

			.icon-set--grey .icon {
				fill: #999;
			}
			
			]]>
		</style>
		<path id="file" 
			d="M23.8932291,6.3616075 C24.1970486,6.6741075 24.4574653,7.09821375 24.6744791,7.63392875 C24.891493,8.1696425 25,8.66071375 25,9.1071425 L25,28.3928575 C25,28.8392863 24.8480903,29.21875 24.5442709,29.53125 C24.2404514,29.84375 23.8715278,30 23.4375,30 L1.5625,30 C1.12847222,30 0.759548611,29.84375 0.455729166,29.53125 C0.151909723,29.21875 0,28.8392863 0,28.3928575 L0,1.6071425 C0,1.16071375 0.151909723,0.78125 0.455729166,0.46875 C0.759548611,0.15625 1.12847222,0 1.5625,0 L16.1458334,0 C16.5798611,0 17.0572916,0.1116075 17.578125,0.33482125 C18.0989584,0.55803625 18.5112848,0.8258925 18.8151041,1.1383925 L23.8932291,6.3616075 L23.8932291,6.3616075 Z M16.6666666,2.27678625 L16.6666666,8.57142875 L22.7864584,8.57142875 C22.6779514,8.2477675 22.5585938,8.01897375 22.4283854,7.885045 L17.3339844,2.64508875 C17.203776,2.51116125 16.9813367,2.3883925 16.6666666,2.27678625 L16.6666666,2.27678625 L16.6666666,2.27678625 Z M22.9166666,27.8571425 L22.9166666,10.7142863 L16.1458334,10.7142863 C15.7118055,10.7142863 15.342882,10.5580363 15.0390625,10.2455363 C14.735243,9.93303625 14.5833334,9.55357125 14.5833334,9.1071425 L14.5833334,2.1428575 L2.08333334,2.1428575 L2.08333334,27.8571425 L22.9166666,27.8571425 L22.9166666,27.8571425 Z M6.25,13.3928575 C6.25,13.2366075 6.29882812,13.1082587 6.39648438,13.0078125 C6.49414062,12.9073663 6.61892361,12.8571425 6.77083334,12.8571425 L18.2291666,12.8571425 C18.3810764,12.8571425 18.5058594,12.9073663 18.6035156,13.0078125 C18.7011719,13.1082587 18.75,13.2366075 18.75,13.3928575 L18.75,14.4642863 C18.75,14.6205363 18.7011719,14.7488837 18.6035156,14.84933 C18.5058594,14.9497762 18.3810764,15 18.2291666,15 L6.77083334,15 C6.61892361,15 6.49414062,14.9497762 6.39648438,14.84933 C6.29882812,14.7488837 6.25,14.6205363 6.25,14.4642863 L6.25,13.3928575 L6.25,13.3928575 Z M18.2291666,17.1428575 C18.3810764,17.1428575 18.5058594,17.19308 18.6035156,17.2935262 C18.7011719,17.3939738 18.75,17.5223212 18.75,17.6785712 L18.75,18.75 C18.75,18.90625 18.7011719,19.0345988 18.6035156,19.135045 C18.5058594,19.2354913 18.3810764,19.2857137 18.2291666,19.2857137 L6.77083334,19.2857137 C6.61892361,19.2857137 6.49414062,19.2354913 6.39648438,19.135045 C6.29882812,19.0345988 6.25,18.90625 6.25,18.75 L6.25,17.6785712 C6.25,17.5223212 6.29882812,17.3939738 6.39648438,17.2935262 C6.49414062,17.19308 6.61892361,17.1428575 6.77083334,17.1428575 L18.2291666,17.1428575 L18.2291666,17.1428575 Z M18.2291666,21.4285712 C18.3810764,21.4285712 18.5058594,21.478795 18.6035156,21.5792413 C18.7011719,21.6796875 18.75,21.8080363 18.75,21.9642863 L18.75,23.0357137 C18.75,23.1919637 18.7011719,23.3203125 18.6035156,23.4207587 C18.5058594,23.521205 18.3810764,23.5714288 18.2291666,23.5714288 L6.77083334,23.5714288 C6.61892361,23.5714288 6.49414062,23.521205 6.39648438,23.4207587 C6.29882812,23.3203125 6.25,23.1919637 6.25,23.0357137 L6.25,21.9642863 C6.25,21.8080363 6.29882812,21.6796875 6.39648438,21.5792413 C6.49414062,21.478795 6.61892361,21.4285712 6.77083334,21.4285712 L18.2291666,21.4285712 L18.2291666,21.4285712 Z" />
		<path id="client" 
			d="M5.70457612,4.14387323 C5.70457612,1.85508588 7.6265766,0 10.0000014,0 C12.3716277,0 14.2954267,1.85508588 14.2954267,4.14387323 C14.2954267,6.43034754 12.3716277,9.7212745 10.0000014,9.7212745 C7.6265766,9.7212745 5.70457612,6.43034754 5.70457612,4.14387323 M18.9655401,14.0016191 C18.7089537,15.9359278 17.5746977,25.4912392 17.2893351,27.0519864 C17.0081691,28.605216 15.9272687,30 14.2348771,30 L5.5283228,30 C3.83473224,30 2.75563028,28.605216 2.47026776,27.0519864 C2.18670374,25.4912392 1.29104912,15.9359278 1.03446265,14.0016191 C0.781473193,12.0823455 1.94930131,10.8454288 3.62011084,10.8454288 C5.29032087,10.8454288 5.47137021,11.2768172 7.46710933,11.8458336 C8.54201477,12.1488464 9.17688643,12.2055167 9.99940192,12.199734 C10.8219174,12.2055167 11.4567891,12.1488464 12.532294,11.8458336 C14.5268341,11.2768172 14.7078835,10.8454288 16.376295,10.8454288 C18.0507015,10.8454288 19.2185296,12.0823455 18.9655401,14.0016191" />
		<path id="phone" 
			d="m 27.643034,37.855782 c -2.201941,1.651113 -3.418694,2.54381 -3.648891,2.676036 -1.203736,0.679629 -2.424601,0.876255 -3.6715,0.592619 -2.23414,-0.484372 -4.65463,-1.725789 -7.264211,-3.722197 C 10.735912,35.655896 8.7840361,33.741017 7.1986937,31.65623 5.7517433,29.7482 4.53773,27.562702 3.5580239,25.10042 2.4755516,22.386019 1.9582942,19.953196 2.0083072,17.802639 c 0.023294,-1.302393 0.5254787,-2.452691 1.4997038,-3.452265 1.2551199,-1.097545 2.3704775,-2.04094 3.3453877,-2.82813 0.2658223,-0.206218 0.5158871,-0.295282 0.7508796,-0.267193 0.264452,0.03083 0.4603933,0.176073 0.5885087,0.430249 l 2.7007,5.081454 c 0.151409,0.283635 0.212384,0.545347 0.18635,0.780339 -0.03562,0.289116 -0.21718,0.559734 -0.541922,0.813224 l -2.740436,2.140966 c -0.088379,0.06988 -0.1130429,0.172648 -0.076732,0.31104 0.8961227,2.264971 2.465022,4.823853 4.70396,7.680758 2.23688,2.852794 4.351127,4.986909 6.339314,6.400289 0.100025,0.03974 0.195941,0.02535 0.28432,-0.04316 l 2.740437,-2.147817 c 0.324741,-0.252806 0.644687,-0.359682 0.959837,-0.320631 0.235678,0.02809 0.476151,0.149354 0.715939,0.366533 l 4.218217,3.793449 c 0.237733,0.215125 0.34187,0.46793 0.304874,0.758416 -0.02467,0.208958 -0.139763,0.393253 -0.34461,0.555624" />
		<path id="phone_circle" 
			d="m 14.999735,11.25 c -3.112553,0 -6.0028571,0.948265 -8.3994493,2.570688 0.034396,-0.0021 0.068262,-0.0042 0.1026582,0 0.2031997,0.02381 0.3545412,0.135466 0.4534952,0.331787 l 2.0849134,3.922706 c 0.1169457,0.220133 0.1650998,0.421216 0.1428748,0.60272 -0.026987,0.223837 -0.166158,0.432329 -0.4164535,0.62812 l -2.1161343,1.653114 c -0.068791,0.05398 -0.087841,0.132821 -0.059796,0.239183 0.6926781,1.749422 1.9034096,3.724799 3.6316655,5.928774 1.727197,2.204505 3.359145,3.852328 4.893726,4.943468 0.07832,0.03016 0.1524,0.01852 0.220133,-0.0344 l 2.116134,-1.656818 c 0.250296,-0.195262 0.497416,-0.278341 0.741362,-0.249237 0.181503,0.02275 0.366182,0.116416 0.55192,0.283103 L 22.20327,33.3432 c 0.184679,0.166158 0.264054,0.36142 0.236537,0.584199 -0.02011,0.162983 -0.109008,0.305329 -0.268287,0.430212 -1.699151,1.27476 -2.637892,1.963205 -2.815691,2.065334 -0.928157,0.525462 -1.872718,0.676803 -2.834213,0.457729 -1.725609,-0.375179 -3.594094,-1.33244 -5.608629,-2.873371 C 9.1201736,32.658463 7.6131092,31.179445 6.3886194,29.570251 5.2715503,28.098112 4.3343975,26.411131 3.5782195,24.509838 2.7426666,22.413812 2.3431464,20.535802 2.3817755,18.874751 2.3881255,18.544022 2.4378671,18.227581 2.5241211,17.921723 0.93080274,20.305086 0,23.167873 0,26.249735 0,34.534356 6.7151147,41.25 14.999735,41.25 23.284356,41.25 30,34.534356 30,26.249735 30,17.965115 23.284356,11.25 14.999735,11.25" />
		<path id="phone_incoming_circle" 
			d="m 24.412538,19.045671 -3.905244,3.905774 2.501896,2.502425 c 0.416453,0.414866 0.276224,0.75512 -0.312208,0.75512 l -6.530436,-0.144463 c -0.294216,0 -0.711728,0.03016 -0.905932,-0.164041 -0.193145,-0.194204 -0.162983,-0.611187 -0.164041,-0.904874 l -0.144992,-6.529906 c 0.0021,-0.588433 0.340783,-0.728662 0.756708,-0.312208 l 2.501367,2.500838 3.905773,-3.905244 c 0.338666,-0.33655 0.890586,-0.33655 1.228723,0 l 1.068386,1.068915 c 0.337608,0.338666 0.337608,0.889527 0,1.227664 z m -9.412273,-7.794613 c -3.408358,0 -6.5489571,1.138236 -9.0677866,3.052758 0.1645706,0.04075 0.2926288,0.143404 0.3783536,0.313796 l 2.0849135,3.922706 c 0.1169457,0.219604 0.1650998,0.421216 0.143404,0.602191 -0.027517,0.223837 -0.1672165,0.432857 -0.4169827,0.628649 l -2.1161343,1.653114 c -0.068792,0.05345 -0.087841,0.132821 -0.059796,0.239183 0.6926782,1.748893 1.9028805,3.724798 3.6316653,5.928245 1.7266682,2.203976 3.3591452,3.852327 4.8937262,4.943467 0.07779,0.03016 0.1524,0.01799 0.220133,-0.03439 l 2.116663,-1.656819 c 0.249237,-0.195262 0.496887,-0.27887 0.740833,-0.249237 0.182033,0.02222 0.365653,0.116946 0.55139,0.282575 l 3.256487,2.929991 c 0.184679,0.166687 0.263525,0.36195 0.237066,0.584199 -0.02064,0.162983 -0.109537,0.305858 -0.268287,0.430741 -1.699151,1.274232 -2.638421,1.962676 -2.815691,2.065335 -0.927628,0.524932 -1.872718,0.676274 -2.834742,0.457199 C 13.9504,36.970107 12.081915,36.012846 10.066851,34.471385 8.2750957,33.122542 6.7675022,31.644052 5.5435415,30.035388 4.4259432,28.56219 3.4893197,26.875739 2.7326125,24.974446 1.9452137,22.99907 1.550456,21.219485 1.5393435,19.6304 0.55456582,21.627472 0,23.873781 0,26.250265 0,34.534885 6.7156439,41.25 15.000265,41.25 23.283827,41.25 30,34.534885 30,26.250265 30,17.966173 23.283827,11.251058 15.000265,11.251058" />
		<path id="email_circle" 
			d="m 25.279311,31.809829 -6.057361,-5.497946 6.057361,-5.587375 0,11.085321 z m -18.7869751,1.54514 6.0023281,-5.448206 1.140353,1.045086 c 0.372532,0.348716 0.832907,0.521221 1.381123,0.521221 0.52652,0 0.975781,-0.174093 1.349372,-0.525454 l 1.132945,-1.045615 6.010265,5.452968 -17.0163861,0 z m -1.7721764,-12.630461 6.0525995,5.592136 -6.0525995,5.493185 0,-11.085321 z m 18.8266625,-1.579006 -8.547616,7.885505 -8.5280367,-7.885505 17.0756527,0 z M 14.999735,11.251 C 6.7156439,11.251 0,17.96601 0,26.2505 0,34.53499 6.7156439,41.25 14.999735,41.25 23.284356,41.25 30,34.53499 30,26.2505 30,17.96601 23.284356,11.251 14.999735,11.251" />
		<path id="mouse_circle" 
			d="M 14.973772,11.25 C 7.1995802,11.25 0.8095361,17.166403 0.05291085,24.742064 2.2873363,23.681217 3.9794255,22.521957 5.132353,21.263228 c 0.3756671,-0.396825 0.8947226,-1.051323 1.5608703,-1.9709 0.6666768,-0.920105 1.2047802,-1.593122 1.6005533,-2.010582 1.2079548,-1.296296 2.5058584,-1.944445 3.9021754,-1.944445 2.561415,0 3.879424,1.643386 3.941859,4.933863 1.250813,0.22963 2.26088,0.832805 3.042374,1.798942 0.780964,0.967195 1.177267,2.077778 1.177267,3.34656 0,1.809524 -0.253972,4.325398 -0.753979,7.526455 -0.20847,1.310583 -0.667736,2.364021 -1.375682,3.174604 -0.811654,0.89418 -1.850822,1.349206 -3.121742,1.349206 -1.270918,0 -2.30903,-0.455026 -3.12174,-1.349206 -0.728582,-0.810583 -1.207954,-1.864021 -1.415366,-3.174604 -0.500536,-3.097354 -0.7407514,-5.613227 -0.7407514,-7.526455 0,-1.288889 0.3793704,-2.406348 1.1508114,-3.373015 0.769852,-0.965608 1.778334,-1.569312 3.029146,-1.798942 l 0.06614,0 c -0.02064,-1.875133 -0.649745,-2.81746 -1.878336,-2.81746 -0.833346,0 -1.637062,0.448677 -2.4074436,1.322751 -1.062451,1.209524 -2.100562,2.512169 -3.1217416,3.928571 C 5.2323545,24.257936 3.0090405,25.718783 0,27.056879 0.41799576,34.966403 6.9609522,41.25 14.973772,41.25 c 8.283195,0 15.000228,-6.715873 15.000228,-15 0,-8.283069 -6.717033,-15 -15.000228,-15 z m 0.09259,10.304232 c -0.291539,0 -0.533342,0.110051 -0.740754,0.317461 -0.208468,0.208994 -0.317464,0.463492 -0.317464,0.753968 l 0,2.18254 c 0,0.292064 0.109001,0.546032 0.317464,0.753968 0.207412,0.208466 0.449215,0.304234 0.740754,0.304234 0.708476,0 1.071444,-0.349737 1.071444,-1.058202 l 0,-2.18254 c 0,-0.707407 -0.362968,-1.071429 -1.071444,-1.071429 z" />
		<path id="advisor_circle" 
			d="m 13.6061,28.846533 c -1.929931,0 -3.494056,-2.774311 -3.494056,-4.703703 0,-1.929393 1.564125,-3.493517 3.494056,-3.493517 1.928853,0 3.493517,1.564124 3.493517,3.493517 0,1.929392 -1.564664,4.703703 -3.493517,4.703703 z M 30.588098,26.54324 c 0,-3.449814 -1.143823,-6.632556 -3.070518,-9.191591 -0.02104,0.03183 -0.0437,0.06205 -0.07014,0.0901 l -3.541536,3.616532 2.068594,1.97903 c 0.342607,0.329119 0.236318,0.606981 -0.239556,0.617772 l -5.287484,0 c -0.237937,0.0043 -0.574609,0.03669 -0.735932,-0.117619 -0.159164,-0.15269 -0.141898,-0.491521 -0.148373,-0.729458 L 19.330072,17.52646 c -0.0097,-0.475874 0.261677,-0.594572 0.606442,-0.265453 l 2.068054,1.97903 3.543154,-3.615453 c 0.07715,-0.08147 0.171034,-0.136503 0.270309,-0.172113 C 23.076093,12.849734 19.372696,11.25 15.294319,11.25 6.847832,11.25 0,18.096753 0,26.54324 0,32.03467 2.8957071,36.84736 7.2416956,39.545056 6.9913494,37.883275 6.5068432,34.472848 6.3120695,32.733373 6.1059655,30.880595 7.0566336,29.689832 8.416273,29.689832 c 1.359099,0 1.504774,0.415446 3.127708,0.961999 0.875673,0.294049 1.39363,0.346384 2.062119,0.344226 0.66849,0.0022 1.185368,-0.05018 2.060501,-0.344226 1.624013,-0.546553 1.769149,-0.961999 3.128788,-0.961999 1.359099,0 2.310307,1.190763 2.102584,3.043541 -0.207183,1.859792 -0.746722,5.63279 -0.976566,7.132709 -0.07607,0.492598 -0.22229,0.967398 -0.43271,1.383918 6.405949,-1.824182 11.099401,-7.715411 11.099401,-14.70676" />
		<path id="download_circle" 
			d="m 21.858254,33.414136 c -0.230187,0.22754 -0.509587,0.34184 -0.838728,0.34184 l -12.0395814,0 c -0.328612,0 -0.6085407,-0.1143 -0.8387279,-0.34184 -0.2301871,-0.227011 -0.3455453,-0.502176 -0.3455453,-0.826554 0,-0.324378 0.1153582,-0.593722 0.3455453,-0.81068 0.2301872,-0.216428 0.5101159,-0.325436 0.8387279,-0.325436 l 12.0395814,0 c 0.329141,0 0.608541,0.109008 0.838728,0.325436 0.230716,0.216958 0.345545,0.486302 0.345545,0.81068 0,0.324378 -0.114829,0.599543 -0.345545,0.826554 z M 17.425432,11.448 c 0.02487,0.104246 0.04127,0.212195 0.04127,0.328611 l 0,8.393074 5.394846,0 c 0.569911,0 0.855661,0.164041 0.855661,0.492652 0,0.176211 -0.121179,0.384702 -0.36195,0.625472 l -7.204593,6.907709 c -0.548216,0.526519 -0.931332,0.788985 -1.150406,0.788985 -0.219604,0 -0.603779,-0.262466 -1.150936,-0.788985 L 6.677544,21.287809 C 6.4140194,21.024285 6.2827862,20.816323 6.2827862,20.662337 c 0,-0.328611 0.2841621,-0.492652 0.8551321,-0.492652 l 5.3948457,0 0,-8.393074 c 0,-0.116416 0.01693,-0.224365 0.04128,-0.328611 C 5.4435292,12.607928 0,18.791741 0,26.249252 0,34.534377 6.7156439,41.25 14.999735,41.25 23.284356,41.25 30,34.534377 30,26.249252 30,18.791741 24.555942,12.607928 17.425432,11.448" />
		<path id="print_circle" 
			d="M 10,12.109788 C 4.1761905,14.169048 0,19.720899 0,26.25 c 0,8.283069 6.7169312,15 15,15 8.28254,0 15,-6.716931 15,-15 0,-6.516402 -4.167725,-12.058201 -9.973545,-14.126984 0.0254,0.108995 0.05291,0.22328 0.05291,0.343915 l 0,6.415344 3.148148,0 c 0.312699,0 0.572487,0.11164 0.780424,0.330688 0.208465,0.217989 0.31746,0.480423 0.31746,0.793651 l 0,8.783069 c 0,0.312698 -0.108995,0.575661 -0.31746,0.79365 -0.207937,0.220106 -0.467725,0.330688 -0.780424,0.330688 l -1.626984,0 1.256614,3.531746 c 0.125926,0.352381 0.06984,0.695238 -0.15873,1.005291 -0.229101,0.310582 -0.524868,0.462963 -0.899471,0.462963 l -13.5978838,0 c -0.3746032,0 -0.6677249,-0.152381 -0.8862434,-0.462963 -0.2190476,-0.310053 -0.2708995,-0.65291 -0.1455026,-1.005291 l 1.2169312,-3.531746 -1.5873016,0 c -0.3126984,0 -0.5756614,-0.110582 -0.7936508,-0.330688 -0.2190476,-0.217989 -0.3306878,-0.480952 -0.3306878,-0.79365 l 0,-8.783069 c 0,-0.313228 0.1116402,-0.575662 0.3306878,-0.793651 0.2179894,-0.219048 0.4809524,-0.330688 0.7936508,-0.330688 l 3.1481481,0 0,-6.415344 c 0,-0.124868 0.025926,-0.244444 0.05291,-0.357143 z m -2.1164021,8.994709 0,6.587302 14.2195771,0 0,-6.587302 -14.2195771,0 z m 2.8439151,8.809524 -0.9656082,2.804233 10.4629632,0 -0.965609,-2.804233 -8.531746,0 z" />
			<path id="star_circle" 
			d="M 15 11.25 C 10.823418 11.25 7.2846362 12.712718 4.375 15.625 C 1.4606009 18.535165 0 22.072889 0 26.25 C 0 30.425524 1.4606009 33.964306 4.375 36.875 C 7.2846362 39.786753 10.823418 41.25 15 41.25 C 19.175524 41.25 22.714835 39.786753 25.625 36.875 C 28.536224 33.964306 30 30.425524 30 26.25 C 30 22.072889 28.536224 18.535165 25.625 15.625 C 22.714835 12.712718 19.175524 11.25 15 11.25 z M 14.90625 14.6875 L 18.75 21.78125 L 26.4375 21.78125 L 20.375 27.90625 L 22.125 35.65625 L 14.96875 32 L 7.65625 35.9375 L 9.75 28.25 L 3.5625 21.65625 L 11.3125 21.65625 L 14.90625 14.6875 z " />
			<path id="magnifying_glass_circle" 
			d="m 15,11.25 c -8.2830688,0 -15,6.716402 -15,15 0,8.283598 6.7169312,15 15,15 8.283598,0 15,-6.716402 15,-15 0,-3.056614 -0.916931,-5.896825 -2.486772,-8.267196 0.227513,0.759789 0.343915,1.56455 0.343915,2.420635 0,2.28254 -0.818519,4.220106 -2.433863,5.806878 -1.616931,1.587831 -3.58783,2.380953 -5.912698,2.380953 -1.307407,0 -2.543915,-0.285714 -3.716931,-0.873016 l -4.047619,6.653439 c -0.37672,0.606349 -0.957672,0.912699 -1.732804,0.912699 -0.6206354,0 -1.1619052,-0.226985 -1.6269846,-0.661376 -0.4645503,-0.433863 -0.7010582,-0.952381 -0.7010582,-1.560847 0,-0.477248 0.1698413,-0.901587 0.5026455,-1.269841 l 5.2777773,-5.767196 c -1.550264,-1.585185 -2.314814,-3.463492 -2.314814,-5.63492 0,-2.278836 0.805291,-4.211641 2.433862,-5.806879 1.626455,-1.596825 3.600529,-2.39418 5.925926,-2.39418 0.269841,0 0.533333,0.01852 0.793651,0.03968 C 18.65291,11.603439 16.87037,11.25 15,11.25 z m 4.510582,3.253968 c -1.683598,0 -3.097354,0.578307 -4.259259,1.719577 -1.162963,1.140741 -1.746032,2.528042 -1.746032,4.179894 0,1.631217 0.585714,3.025397 1.759259,4.166667 1.173545,1.14127 2.584656,1.706349 4.246032,1.706349 1.660847,0 3.069312,-0.565079 4.232804,-1.706349 1.162434,-1.14127 1.746032,-2.53545 1.746032,-4.166667 0,-1.651852 -0.583598,-3.039153 -1.746032,-4.179894 -1.163492,-1.14127 -2.571957,-1.719577 -4.232804,-1.719577 z m 2.02381,2.777778 c 0.221164,0 0.430687,0.07249 0.608465,0.224868 0.886244,0.78201 1.322751,1.744973 1.322751,2.896825 0,1.065609 -0.389418,1.975132 -1.164021,2.724868 -0.775661,0.750794 -1.706878,1.124339 -2.791005,1.124339 -0.620635,0 -0.925926,-0.303704 -0.925926,-0.912699 0,-0.608995 0.298413,-0.912698 0.886243,-0.912698 0.585715,0 1.084127,-0.191006 1.494709,-0.582011 0.408995,-0.392063 0.608466,-0.875661 0.608466,-1.441799 0,-0.630159 -0.218518,-1.142857 -0.661376,-1.534391 -0.221164,-0.195238 -0.330687,-0.412699 -0.330687,-0.674604 0,-0.608465 0.310582,-0.912698 0.952381,-0.912698 z" />
			<path id="arrow_right_circle" 
			d="m 11.827386,35.601243 c 0,0.191556 0.08096,0.329666 0.245004,0.411155 0.193675,0.08255 0.358774,0.06826 0.495299,-0.04128 l 8.901628,-8.941175 c 0.24765,-0.247117 0.369358,-0.50852 0.369358,-0.782623 0,-0.275163 -0.121708,-0.535508 -0.369358,-0.782625 l -8.859295,-8.900959 c -0.138641,-0.13811 -0.303212,-0.165097 -0.49477,-0.08255 -0.190499,0.05609 -0.287866,0.192084 -0.287866,0.412742 l 0,18.707307 z M 0,26.251558 C 0,22.074918 1.4573228,18.530092 4.3693225,15.619724 7.2797347,12.7083 10.823029,11.251 14.998677,11.251 c 4.176177,0 7.722117,1.4573 10.631471,4.368724 C 28.543736,18.530092 30,22.074918 30,26.251558 30,30.426612 28.543736,33.971967 25.630148,36.882334 22.720794,39.793759 19.174854,41.25 14.998677,41.25 10.823029,41.25 7.2797347,39.793759 4.3693225,36.882334 1.4573228,33.971967 0,30.426612 0,26.251558" />
			<path id="exlamationpoint" 
			d="M1.00256061,8.46529527 C1.00256061,8.88813655 1.0385143,9.7196192 1.07582473,10.132205 L1.71756413,19.9285538 C1.77386897,20.6235597 2.28129082,21.1647334 2.87283074,21.1647334 L4.4425823,21.1647334 C5.03412222,21.1647334 5.53950896,20.6235597 5.59649216,19.9230316 L6.23823156,10.1416716 C6.27282851,9.7196192 6.31081731,8.88813655 6.31081731,8.46529527 L6.31081731,1.7037793 C6.31081731,1.00009569 5.80814405,0.425 5.1915044,0.425 L2.12323027,0.425 C1.50455549,0.425 1.00256061,1.00009569 1.00256061,1.7037793 L1.00256061,8.46529527, M6.418,26.80998 C6.418,24.8574946 5.33328403,23.5944929 3.65974163,23.5944929 C1.97805878,23.5944929 0.89469955,24.8574946 0.89469955,26.80998 C0.89469955,28.7608875 1.97805878,30.0175781 3.65974163,30.0175781 C5.33328403,30.0175781 6.418,28.7608875 6.418,26.80998" />
			<path id="exlamationpoint-dot" 
			d="M6.418,26.80998 C6.418,24.8574946 5.33328403,23.5944929 3.65974163,23.5944929 C1.97805878,23.5944929 0.89469955,24.8574946 0.89469955,26.80998 C0.89469955,28.7608875 1.97805878,30.0175781 3.65974163,30.0175781 C5.33328403,30.0175781 6.418,28.7608875 6.418,26.80998" />
			<path id="vink" 
			d="M10.1465292,20.1174024 L4.22868834,13.5269458 C3.33282869,12.5292636 1.79853996,12.4482445 0.802863367,13.3472149 C-0.193032142,14.2463829 -0.273329842,15.7841726 0.623024455,16.7824056 L8.42668436,25.4730216 C8.50349277,25.55856 8.58499419,25.6373602 8.67044681,25.7093821 C8.79082377,25.8370101 8.92693895,25.9534516 9.07822663,26.0557763 C10.1892278,26.8072117 11.6967438,26.5132219 12.4459033,25.3995006 L24.9617511,6.79309424 C25.7106605,5.67974465 25.4177779,4.16749867 24.3070209,3.41622848 C23.1960197,2.6647931 21.6885037,2.95878295 20.9393442,4.07250423 L10.1465292,20.1174024 L10.1465292,20.1174024 Z" />
	</defs>
	<g class="sheet" transform="translate(0,-11)">
		
		<g class="icon-set icon-set--orange" transform="translate(0,0)">
			<g transform="translate(0,0)">
				<use x="0" y="0" xlink:href="#phone_circle" class="icon" />
			</g>
			<g transform="translate(0,60)">
				<use x="0" y="0" xlink:href="#phone_incoming_circle" class="icon" />
			</g>
			<g transform="translate(0,120)">
				<use x="0" y="0" xlink:href="#email_circle" class="icon" />
			</g>
			<g transform="translate(0,180)">
				<use x="0" y="0" xlink:href="#mouse_circle" class="icon" />
			</g>
			<g transform="translate(0,240)">
				<use x="0" y="0" xlink:href="#advisor_circle" class="icon" />
			</g>
			<g transform="translate(0,300)">
				<use x="0" y="0" xlink:href="#download_circle" class="icon" />
			</g>
			<g transform="translate(0,360)">
				<use x="0" y="0" xlink:href="#print_circle" class="icon" />
			</g>
			<g transform="translate(0,420)">
				<use x="0" y="0" xlink:href="#star_circle" class="icon" />
			</g>
			<g transform="translate(0,480)">
				<use x="0" y="0" xlink:href="#magnifying_glass_circle" class="icon" />
			</g>
			<g transform="translate(0,540)">
				<use x="0" y="0" xlink:href="#arrow_right_circle" class="icon" />
			</g>
			<g transform="translate(0,600)">
				<use x="0" y="0" xlink:href="#client" class="icon"/>
			</g>
			<g transform="translate(0,660)">
				<use x="0" y="0" xlink:href="#file" class="icon"/>
			</g>
			<g transform="translate(9,720)">
				<use x="0" y="0" xlink:href="#exlamationpoint" class="icon"/>
			</g>
			<g transform="translate(9,720)">
				<use x="0" y="0" xlink:href="#exlamationpoint-dot" class="icon"/>
			</g>
			<g transform="translate(0,780)">
				<use x="0" y="0" xlink:href="#vink" class="icon"/>
			</g>

		</g>
		
		<g class="icon-set icon-set--orange" transform="translate(60,3.5)">
			<!-- 3.5 is a guessed value that somehow only applies to columns after the 1st one, but is consistent across browsers. Requires more research. -->
			
			<g transform="translate(0,0)">
				<use x="0" y="0" xlink:href="#phone_circle" class="icon" transform="scale(0.666666667)"/>
			</g>
			<g transform="translate(0,60)">
				<use x="0" y="0" xlink:href="#phone_incoming_circle" class="icon" transform="scale(0.666666667)"/>
			</g>
			<g transform="translate(0,120)">
				<use x="0" y="0" xlink:href="#email_circle" class="icon" transform="scale(0.666666667)"/>
			</g>
			<g transform="translate(0,180)">
				<use x="0" y="0" xlink:href="#mouse_circle" class="icon" transform="scale(0.666666667)"/>
			</g>
			<g transform="translate(0,240)">
				<use x="0" y="0" xlink:href="#advisor_circle" class="icon" transform="scale(0.666666667)"/>
			</g>
			<g transform="translate(0,300)">
				<use x="0" y="0" xlink:href="#download_circle" class="icon" transform="scale(0.666666667)"/>
			</g>
			<g transform="translate(0,360)">
				<use x="0" y="0" xlink:href="#print_circle" class="icon" transform="scale(0.666666667)"/>
			</g>
			<g transform="translate(0,420)">
				<use x="0" y="0" xlink:href="#star_circle" class="icon" transform="scale(0.666666667)"/>
			</g>
			<g transform="translate(0,480)">
				<use x="0" y="0" xlink:href="#magnifying_glass_circle" class="icon" transform="scale(0.666666667)"/>
			</g>
			<g transform="translate(0,540)">
				<use x="0" y="0" xlink:href="#arrow_right_circle" class="icon" transform="scale(0.666666667)"/>
			</g>
			<g transform="translate(0,600)">
				<use x="0" y="0" xlink:href="#client" class="icon" transform="scale(0.666666667)"/>
			</g>
			<g transform="translate(0,660)">
				<use x="0" y="0" xlink:href="#file" class="icon" transform="scale(0.666666667)"/>
			</g>
			<g transform="translate(5,720)">
				<use x="0" y="0" xlink:href="#exlamationpoint" class="icon" transform="scale(0.666666667)"/>
			</g>
			<g transform="translate(5,720)">
				<use x="0" y="0" xlink:href="#exlamationpoint-dot" class="icon" transform="scale(0.666666667)"/>
			</g>
			<g transform="translate(0,780)">
				<use x="0" y="0" xlink:href="#vink" class="icon" transform="scale(0.7)"/>
			</g>
		</g>
		
		<g class="icon-set icon-set--white" transform="translate(120,3.5)">
			<!-- 3.5 is a guessed value that somehow only applies to columns after the 1st one, but is consistent across browsers. Requires more research. -->
			<g transform="translate(0,0)">
				<use x="0" y="0" xlink:href="#phone" class="icon" transform="scale(0.666666667)" />
			</g>
		</g>

		<g class="icon-set icon-set--black" transform="translate(240,0)">
			<g transform="translate(0,0)">
				<use x="0" y="0" xlink:href="#phone_circle" class="icon" />
			</g>
			<g transform="translate(0,60)">
				<use x="0" y="0" xlink:href="#phone_incoming_circle" class="icon" />
			</g>
			<g transform="translate(0,120)">
				<use x="0" y="0" xlink:href="#email_circle" class="icon" />
			</g>
			<g transform="translate(0,180)">
				<use x="0" y="0" xlink:href="#mouse_circle" class="icon" />
			</g>
			<g transform="translate(0,240)">
				<use x="0" y="0" xlink:href="#advisor_circle" class="icon" />
			</g>
			<g transform="translate(0,300)">
				<use x="0" y="0" xlink:href="#download_circle" class="icon" />
			</g>
			<g transform="translate(0,360)">
				<use x="0" y="0" xlink:href="#print_circle" class="icon" />
			</g>
			<g transform="translate(0,420)">
				<use x="0" y="0" xlink:href="#star_circle" class="icon" />
			</g>
			<g transform="translate(0,480)">
				<use x="0" y="0" xlink:href="#magnifying_glass_circle" class="icon" />
			</g>
			<g transform="translate(0,540)">
				<use x="0" y="0" xlink:href="#arrow_right_circle" class="icon" />
			</g>
			<g transform="translate(0,600)">
				<use x="0" y="0" xlink:href="#client" class="icon"/>
			</g>
			<g transform="translate(0,660)">
				<use x="0" y="0" xlink:href="#file" class="icon"/>
			</g>
		</g>
		
		<g class="icon-set icon-set--black" transform="translate(300,3.5)">
			<!-- 3.5 is a guessed value that somehow only applies to columns after the 1st one, but is consistent across browsers. Requires more research. -->
			
			<g transform="translate(0,0)">
				<use x="0" y="0" xlink:href="#phone_circle" class="icon" transform="scale(0.666666667)"/>
			</g>
			<g transform="translate(0,60)">
				<use x="0" y="0" xlink:href="#phone_incoming_circle" class="icon" transform="scale(0.666666667)"/>
			</g>
			<g transform="translate(0,120)">
				<use x="0" y="0" xlink:href="#email_circle" class="icon" transform="scale(0.666666667)"/>
			</g>
			<g transform="translate(0,180)">
				<use x="0" y="0" xlink:href="#mouse_circle" class="icon" transform="scale(0.666666667)"/>
			</g>
			<g transform="translate(0,240)">
				<use x="0" y="0" xlink:href="#advisor_circle" class="icon" transform="scale(0.666666667)"/>
			</g>
			<g transform="translate(0,300)">
				<use x="0" y="0" xlink:href="#download_circle" class="icon" transform="scale(0.666666667)"/>
			</g>
			<g transform="translate(0,360)">
				<use x="0" y="0" xlink:href="#print_circle" class="icon" transform="scale(0.666666667)"/>
			</g>
			<g transform="translate(0,420)">
				<use x="0" y="0" xlink:href="#star_circle" class="icon" transform="scale(0.666666667)"/>
			</g>
			<g transform="translate(0,480)">
				<use x="0" y="0" xlink:href="#magnifying_glass_circle" class="icon" transform="scale(0.666666667)"/>
			</g>
			<g transform="translate(0,540)">
				<use x="0" y="0" xlink:href="#arrow_right_circle" class="icon" transform="scale(0.666666667)"/>
			</g>
			<g transform="translate(0,600)">
				<use x="0" y="0" xlink:href="#client" class="icon" transform="scale(0.666666667)"/>
			</g>
			<g transform="translate(0,660)">
				<use x="0" y="0" xlink:href="#file" class="icon" transform="scale(0.666666667)"/>
			</g>
		</g>



		<g class="icon-set icon-set--grey" transform="translate(360,0)">
			<g transform="translate(0,0)">
				<use x="0" y="0" xlink:href="#phone_circle" class="icon" />
			</g>
			<g transform="translate(0,60)">
				<use x="0" y="0" xlink:href="#phone_incoming_circle" class="icon" />
			</g>
			<g transform="translate(0,120)">
				<use x="0" y="0" xlink:href="#email_circle" class="icon" />
			</g>
			<g transform="translate(0,180)">
				<use x="0" y="0" xlink:href="#mouse_circle" class="icon" />
			</g>
			<g transform="translate(0,240)">
				<use x="0" y="0" xlink:href="#advisor_circle" class="icon" />
			</g>
			<g transform="translate(0,300)">
				<use x="0" y="0" xlink:href="#download_circle" class="icon" />
			</g>
			<g transform="translate(0,360)">
				<use x="0" y="0" xlink:href="#print_circle" class="icon" />
			</g>
			<g transform="translate(0,420)">
				<use x="0" y="0" xlink:href="#star_circle" class="icon" />
			</g>
			<g transform="translate(0,480)">
				<use x="0" y="0" xlink:href="#magnifying_glass_circle" class="icon" />
			</g>
			<g transform="translate(0,540)">
				<use x="0" y="0" xlink:href="#arrow_right_circle" class="icon" />
			</g>
			<g transform="translate(0,600)">
				<use x="0" y="0" xlink:href="#client" class="icon"/>
			</g>
			<g transform="translate(0,660)">
				<use x="0" y="0" xlink:href="#file" class="icon"/>
			</g>
		</g>
		
		<g class="icon-set icon-set--grey" transform="translate(420,3.5)">
			<!-- 3.5 is a guessed value that somehow only applies to columns after the 1st one, but is consistent across browsers. Requires more research. -->
			
			<g transform="translate(0,0)">
				<use x="0" y="0" xlink:href="#phone_circle" class="icon" transform="scale(0.666666667)"/>
			</g>
			<g transform="translate(0,60)">
				<use x="0" y="0" xlink:href="#phone_incoming_circle" class="icon" transform="scale(0.666666667)"/>
			</g>
			<g transform="translate(0,120)">
				<use x="0" y="0" xlink:href="#email_circle" class="icon" transform="scale(0.666666667)"/>
			</g>
			<g transform="translate(0,180)">
				<use x="0" y="0" xlink:href="#mouse_circle" class="icon" transform="scale(0.666666667)"/>
			</g>
			<g transform="translate(0,240)">
				<use x="0" y="0" xlink:href="#advisor_circle" class="icon" transform="scale(0.666666667)"/>
			</g>
			<g transform="translate(0,300)">
				<use x="0" y="0" xlink:href="#download_circle" class="icon" transform="scale(0.666666667)"/>
			</g>
			<g transform="translate(0,360)">
				<use x="0" y="0" xlink:href="#print_circle" class="icon" transform="scale(0.666666667)"/>
			</g>
			<g transform="translate(0,420)">
				<use x="0" y="0" xlink:href="#star_circle" class="icon" transform="scale(0.666666667)"/>
			</g>
			<g transform="translate(0,480)">
				<use x="0" y="0" xlink:href="#magnifying_glass_circle" class="icon" transform="scale(0.666666667)"/>
			</g>
			<g transform="translate(0,540)">
				<use x="0" y="0" xlink:href="#arrow_right_circle" class="icon" transform="scale(0.666666667)"/>
			</g>
			<g transform="translate(0,600)">
				<use x="0" y="0" xlink:href="#client" class="icon" transform="scale(0.666666667)"/>
			</g>
			<g transform="translate(0,660)">
				<use x="0" y="0" xlink:href="#file" class="icon" transform="scale(0.666666667)"/>
			</g>
		</g>



		
		
	</g>
</svg>