<?xml version="1.0" encoding="utf-8"?>
<!-- Generator: Adobe Illustrator 21.0.2, SVG Export Plug-In . SVG Version: 6.00 Build 0)  -->
<svg version="1.1" id="Layer_1" xmlns="http://www.w3.org/2000/svg" xmlns:xlink="http://www.w3.org/1999/xlink" x="0px" y="0px"
	 viewBox="0 0 17 17" width="16" height="16" style="enable-background:new 0 0 16 16;" xml:space="preserve">
<style type="text/css">
	.st0{fill:#FFFFFF;}
	.st1{fill:#CAC7C7;}
	.st2{fill:#EA650D;}
</style>
<path class="st0" d="M12.3,1.3c1.3,0,2.4,1.1,2.4,2.4v8.6c0,1.3-1.1,2.4-2.4,2.4H3.7c-1.3,0-2.4-1.1-2.4-2.4V3.8
	c0-1.3,1.1-2.5,2.4-2.5H12.3z"/>
<path class="st1" d="M12.3,1.3c1.3,0,2.4,1.1,2.4,2.4v8.6c0,1.3-1.1,2.4-2.4,2.4H3.7c-1.3,0-2.4-1.1-2.4-2.4V3.7
	c0-1.3,1.1-2.4,2.4-2.4H12.3 M12.3,0.3H3.7c-1.9,0-3.4,1.5-3.4,3.4v8.6c0,1.9,1.5,3.4,3.4,3.4h8.6c1.9,0,3.4-1.5,3.4-3.4V3.7
	C15.7,1.9,14.2,0.3,12.3,0.3L12.3,0.3z"/>
<path class="st2" d="M12.1,4.7c-0.1-0.1-0.3-0.1-0.5,0L6.8,9.5c-0.1,0.1-0.3,0.1-0.5,0L4.2,7.4C4.1,7.3,4.1,7.3,4,7.3
	c-0.1,0-0.2,0-0.2,0.1L2.9,8.2C2.8,8.3,2.8,8.3,2.8,8.4s0,0.2,0.1,0.2L5,10.8c0.1,0.1,0.3,0.3,0.5,0.5l0.9,0.9
	c0.1,0.1,0.3,0.1,0.5,0l6.2-6.1c0.1-0.1,0.1-0.3,0-0.5L12.1,4.7z"/>
</svg>
