<?xml version="1.0" encoding="utf-8"?>
<!-- Generator: Adobe Illustrator 21.0.2, SVG Export Plug-In . SVG Version: 6.00 Build 0)  -->
<svg version="1.1" id="Layer_1" xmlns="http://www.w3.org/2000/svg" xmlns:xlink="http://www.w3.org/1999/xlink" x="0px" y="0px"
	 viewBox="0 0 17 17" width="16" height="16" style="enable-background:new 0 0 16 16;" xml:space="preserve">
<style type="text/css">
	.st0{fill:#FFFFFF;}
	.st1{fill:#CAC7C7;}
</style>
<path class="st0" d="M12.3,1.3c1.3,0,2.4,1.1,2.4,2.4v8.6c0,1.3-1.1,2.4-2.4,2.4H3.7c-1.3,0-2.4-1.1-2.4-2.4V3.8
	c0-1.3,1.1-2.5,2.4-2.5H12.3z"/>
<path class="st1" d="M12.3,1.3c1.3,0,2.4,1.1,2.4,2.4v8.6c0,1.3-1.1,2.4-2.4,2.4H3.7c-1.3,0-2.4-1.1-2.4-2.4V3.8
	c0-1.3,1.1-2.5,2.4-2.5H12.3z M12.3,0.3H3.7c-1.9,0-3.4,1.5-3.4,3.4v8.6c0,1.9,1.5,3.4,3.4,3.4h8.6c1.9,0,3.4-1.5,3.4-3.4V3.8
	C15.7,1.9,14.2,0.3,12.3,0.3L12.3,0.3z"/>
</svg>
