<svg version="1.1" baseProfile="tiny"
	 xmlns="http://www.w3.org/2000/svg" xmlns:xlink="http://www.w3.org/1999/xlink" x="0px" y="0px" viewBox="0 0 143.4 142.5"
	 xml:space="preserve"
	 fill="#FFED00"
>
	<polygon points="65.7,18.6 71.7,14.2 77.7,18.6 75.4,11.5 81.5,7.1 74,7.1 71.7,0 69.4,7.2 61.9,7.1 68,11.5"/>
	<polygon points="34.8,26.9 40.8,22.5 46.7,26.9 44.5,19.8 50.5,15.5 43,15.5 40.8,8.3 38.5,15.5 31,15.5 37,19.8"/>
	<polygon points="18.1,31 15.8,38.2 8.3,38.2 14.4,42.5 12.1,49.6 18.1,45.2 24.1,49.6 21.8,42.5 27.9,38.2 20.4,38.2"/>
	<polygon points="9.8,76.2 15.8,80.5 13.5,73.5 19.6,69.1 12.1,69.1 9.8,62 7.5,69.1 0,69.1 6.1,73.5 3.8,80.5"/>
	<polygon points="20.4,100.1 18.1,93 15.8,100.1 8.3,100.1 14.4,104.5 12.1,111.6 18.1,107.2 24.1,111.6 21.8,104.5 27.9,100.1"/>
	<polygon points="43.1,122.8 40.8,115.7 38.5,122.8 31,122.8 37.1,127.2 34.8,134.3 40.8,129.9 46.8,134.3 44.5,127.2 50.6,122.8"/>
	<polygon points="74,131.1 71.7,123.9 69.4,131.1 61.9,131.1 68,135.4 65.8,142.5 71.7,138.1 77.7,142.5 75.4,135.4 81.5,131.1"/>
	<polygon points="105,122.8 102.7,115.7 100.4,122.8 92.9,122.8 99,127.2 96.7,134.3 102.7,129.9 108.6,134.3 106.4,127.2 112.4,122.8"/>
	<polygon points="127.7,100.1 125.4,93 123.1,100.1 115.6,100.1 121.7,104.5 119.4,111.6 125.4,107.2 131.4,111.6 129.1,104.5 135.1,100.1"/>
	<polygon points="143.4,69 135.9,69 133.6,61.9 131.3,69 123.8,69 129.9,73.4 127.6,80.5 133.6,76.1 139.6,80.5 137.3,73.4"/>
	<polygon points="119.4,49.5 125.4,45.1 131.4,49.5 129.1,42.5 135.1,38.1 127.7,38.1 125.4,30.9 123.1,38.1 115.6,38.1 121.7,42.5"/>
	<polygon points="102.8,8.3 100.5,15.5 93,15.5 99,19.8 96.8,26.9 102.8,22.5 108.7,26.9 106.5,19.8 112.5,15.5 105,15.5"/>
</svg>
