<svg width="185px" height="189px" viewBox="0 0 185 189" version="1.1" xmlns="http://www.w3.org/2000/svg" xmlns:xlink="http://www.w3.org/1999/xlink">
    <defs>
        <rect id="path-1" x="0.921982245" y="69.6600397" width="5" height="1.5"></rect>
        <mask id="mask-2" maskContentUnits="userSpaceOnUse" maskUnits="objectBoundingBox" x="0" y="0" width="5" height="1.5" fill="white">
            <use xlink:href="#path-1"></use>
        </mask>
        <rect id="path-3" x="3.92198224" y="57.6600397" width="5" height="1.5"></rect>
        <mask id="mask-4" maskContentUnits="userSpaceOnUse" maskUnits="objectBoundingBox" x="0" y="0" width="5" height="1.5" fill="white">
            <use xlink:href="#path-3"></use>
        </mask>
        <rect id="path-5" x="13.9219822" y="36.6600397" width="5" height="1.5"></rect>
        <mask id="mask-6" maskContentUnits="userSpaceOnUse" maskUnits="objectBoundingBox" x="0" y="0" width="5" height="1.5" fill="white">
            <use xlink:href="#path-5"></use>
        </mask>
        <rect id="path-7" x="21.9219822" y="27.6600397" width="5" height="1.5"></rect>
        <mask id="mask-8" maskContentUnits="userSpaceOnUse" maskUnits="objectBoundingBox" x="0" y="0" width="5" height="1.5" fill="white">
            <use xlink:href="#path-7"></use>
        </mask>
        <rect id="path-9" x="40.6425722" y="12.1791964" width="5" height="1.5"></rect>
        <mask id="mask-10" maskContentUnits="userSpaceOnUse" maskUnits="objectBoundingBox" x="0" y="0" width="5" height="1.5" fill="white">
            <use xlink:href="#path-9"></use>
        </mask>
        <rect id="path-11" x="51.8719198" y="6.85574666" width="5" height="1.5"></rect>
        <mask id="mask-12" maskContentUnits="userSpaceOnUse" maskUnits="objectBoundingBox" x="0" y="0" width="5" height="1.5" fill="white">
            <use xlink:href="#path-11"></use>
        </mask>
        <rect id="path-13" x="74.8719198" y="1.85574666" width="5" height="1.5"></rect>
        <mask id="mask-14" maskContentUnits="userSpaceOnUse" maskUnits="objectBoundingBox" x="0" y="0" width="5" height="1.5" fill="white">
            <use xlink:href="#path-13"></use>
        </mask>
        <rect id="path-15" x="87.8719198" y="1.85574666" width="5" height="1.5"></rect>
        <mask id="mask-16" maskContentUnits="userSpaceOnUse" maskUnits="objectBoundingBox" x="0" y="0" width="5" height="1.5" fill="white">
            <use xlink:href="#path-15"></use>
        </mask>
        <rect id="path-17" x="110.87192" y="6.85574666" width="5" height="1.5"></rect>
        <mask id="mask-18" maskContentUnits="userSpaceOnUse" maskUnits="objectBoundingBox" x="0" y="0" width="5" height="1.5" fill="white">
            <use xlink:href="#path-17"></use>
        </mask>
        <rect id="path-19" x="121.87192" y="11.7900635" width="5" height="1.5"></rect>
        <mask id="mask-20" maskContentUnits="userSpaceOnUse" maskUnits="objectBoundingBox" x="0" y="0" width="5" height="1.5" fill="white">
            <use xlink:href="#path-19"></use>
        </mask>
        <rect id="path-21" x="140.87192" y="26.8557467" width="5" height="1.5"></rect>
        <mask id="mask-22" maskContentUnits="userSpaceOnUse" maskUnits="objectBoundingBox" x="0" y="0" width="5" height="1.5" fill="white">
            <use xlink:href="#path-21"></use>
        </mask>
        <rect id="path-23" x="148.604092" y="36.7697604" width="5" height="1.5"></rect>
        <mask id="mask-24" maskContentUnits="userSpaceOnUse" maskUnits="objectBoundingBox" x="0" y="0" width="5" height="1.5" fill="white">
            <use xlink:href="#path-23"></use>
        </mask>
        <rect id="path-25" x="158.622138" y="57.8597606" width="5" height="1.5"></rect>
        <mask id="mask-26" maskContentUnits="userSpaceOnUse" maskUnits="objectBoundingBox" x="0" y="0" width="5" height="1.5" fill="white">
            <use xlink:href="#path-25"></use>
        </mask>
        <rect id="path-27" x="161.044094" y="69.8597606" width="5" height="1.5"></rect>
        <mask id="mask-28" maskContentUnits="userSpaceOnUse" maskUnits="objectBoundingBox" x="0" y="0" width="5" height="1.5" fill="white">
            <use xlink:href="#path-27"></use>
        </mask>
    </defs>
    <g id="Page-1" stroke="none" stroke-width="1" fill="none" fill-rule="evenodd">
        <g id="risicometer">
            <g id="circle" transform="translate(0.000000, 95.000000)">
                <path d="M184,94 C184,43.189803 142.810197,2 92,2 C41.189803,2 0,43.189803 0,94" id="Oval-1" fill="#000000" transform="translate(92.000000, 48.000000) scale(1, -1) translate(-92.000000, -48.000000) "></path>
                <path d="M0.5,1.5 L183.5,1.5" id="Line" stroke="#979797" stroke-linecap="square"></path>
            </g>
            <g id="text" transform="translate(10.000000, 103.000000)" fill="#FFFFFF">
                <path d="M36.8948764,50.8974961 L37.8475533,51.7269776 L32.4538392,57.9217708 L36.0156059,61.022948 L35.2861624,61.8607291 L30.7717188,57.9300704 L36.8948764,50.8974961 Z M43.656096,58.9291475 C43.9091655,59.3676022 44.035457,59.8021979 44.0349743,60.2329475 C44.0367576,60.6449081 43.9434973,61.0625555 43.7551906,61.4859022 C43.6391134,61.7845242 43.3921774,62.2198553 43.0143753,62.7919084 L38.8564175,60.0458602 C38.4939392,60.633105 38.324969,61.1845864 38.3495018,61.7003209 C38.3740346,62.2160554 38.6529018,62.6499906 39.1861118,63.0021395 C39.6840098,63.3309673 40.1897046,63.429128 40.7032111,63.2966246 C40.9986424,63.2178816 41.2644559,63.076476 41.5006597,62.8724036 L42.4381865,63.4915762 C42.2758735,63.6835918 42.0404405,63.8615434 41.7318803,64.0254364 C41.4233201,64.1893294 41.1288916,64.295355 40.8485861,64.3435163 C40.3724593,64.4347785 39.8881166,64.3887542 39.3955432,64.205442 C39.1287019,64.1103538 38.8505066,63.9671952 38.5609489,63.775962 C37.8547105,63.3095396 37.425841,62.6573622 37.2743276,61.8194102 C37.1228142,60.9814582 37.3525607,60.0999093 37.9635741,59.174737 C38.565259,58.2636894 39.3010089,57.6871612 40.1708458,57.445135 C41.0406827,57.2031087 41.8746134,57.3456221 42.6726627,57.8726795 C43.0752186,58.1385402 43.4030264,58.4906927 43.656096,58.9291475 L43.656096,58.9291475 Z M42.5347099,61.3873136 C42.7687239,60.9485109 42.8967291,60.5588815 42.9187293,60.2184135 C42.9605956,59.5867823 42.6760849,59.0692467 42.0651887,58.6657914 C41.6273209,58.3766095 41.155722,58.2920919 40.6503779,58.4122362 C40.1450337,58.5323805 39.7226243,58.8302701 39.3831368,59.305914 L42.5347099,61.3873136 Z M49.5207745,61.5696665 C49.8260481,61.9735166 50.0050373,62.3891917 50.0577475,62.8167043 C50.1103864,63.225292 50.0694113,63.651259 49.934821,64.0946181 C49.8565062,64.405288 49.6652151,64.8677793 49.3609419,65.4821058 L44.8957208,63.2705013 C44.60853,63.898011 44.5089503,64.4661365 44.5969787,64.9748947 C44.685007,65.4836529 45.0153227,65.8798325 45.5879357,66.1634451 C46.1226273,66.4282755 46.6365728,66.4632414 47.1297879,66.2683438 C47.4132349,66.1537233 47.6595533,65.9805771 47.8687504,65.7488998 L48.8755582,66.2475673 C48.7381977,66.4581559 48.52654,66.6638171 48.2405789,66.8645571 C47.9546178,67.0652971 47.6755347,67.2068675 47.4033213,67.2892726 C46.9421076,67.4386289 46.4557884,67.4527639 45.9443491,67.3316779 C45.6678084,67.2702672 45.3740648,67.1625561 45.0631094,67.0085412 C44.3046817,66.6328953 43.798563,66.0386661 43.5447381,65.225836 C43.2909133,64.4130059 43.4100471,63.5098342 43.9021433,62.5162938 C44.3867266,61.537922 45.0456556,60.874955 45.87895,60.5273728 C46.7122444,60.1797906 47.5573906,60.2182389 48.414414,60.6427189 C48.8467178,60.8568371 49.215501,61.1658165 49.5207745,61.5696665 L49.5207745,61.5696665 Z M48.7115069,64.1474899 C48.8895462,63.6831492 48.96846,63.2806954 48.9482505,62.9401165 C48.9118021,62.3081494 48.5655631,61.8297062 47.9095231,61.5047725 C47.4392979,61.271872 46.9608719,61.2462347 46.4742307,61.4278598 C45.9875894,61.6094849 45.6051964,61.9572542 45.32704,62.4711782 L48.7115069,64.1474899 Z M50.8531962,66.5912796 C50.7552375,66.9608814 50.7452509,67.2678402 50.8232359,67.5121651 C50.9683136,67.9563559 51.3750405,68.2995804 52.043429,68.541849 C52.4412793,68.6860565 52.8227469,68.726426 53.1878434,68.6629588 C53.5529398,68.5994916 53.8010987,68.3867393 53.9323275,68.0246956 C54.0318307,67.7501789 53.986196,67.497328 53.795422,67.2661353 C53.671986,67.1223674 53.4024183,66.909879 52.9867106,66.6286638 L52.2111977,66.1045023 C51.7151733,65.771669 51.3681486,65.4748408 51.170113,65.2140088 C50.8138782,64.7562974 50.7287758,64.2708356 50.9148035,63.7576088 C51.1339988,63.1528763 51.5291911,62.7424802 52.1003922,62.5264082 C52.6715932,62.3103361 53.3251955,62.3356916 54.0612185,62.6024754 C55.0240161,62.9514574 55.6158687,63.4855651 55.8367939,64.2048145 C55.9735669,64.6594988 55.9629871,65.0922745 55.8050543,65.5031546 L54.7905412,65.1354274 C54.8586152,64.8855284 54.8531127,64.6337206 54.7740333,64.3799967 C54.6297534,64.0081143 54.2532637,63.7118589 53.6445528,63.4912215 C53.2387455,63.3441299 52.9032907,63.3103109 52.6381784,63.3897636 C52.3730661,63.4692163 52.1943662,63.6362522 52.1020735,63.8908764 C52.0011282,64.1693716 52.0576296,64.4419152 52.2715791,64.7085155 C52.3946673,64.8656611 52.5976703,65.0382679 52.8805941,65.2263413 L53.5280234,65.6568143 C54.2320754,66.1235665 54.6836596,66.4920525 54.8827895,66.7622836 C55.2010291,67.1882181 55.2534346,67.6955869 55.0400076,68.2844054 C54.8337909,68.8533312 54.4398668,69.2664376 53.8582235,69.5237368 C53.2765802,69.781036 52.5441557,69.7496157 51.6609281,69.4294752 C50.710066,69.0848193 50.1149458,68.6249213 49.8755499,68.0497673 C49.636154,67.4746134 49.6178975,66.8637181 49.8207799,66.2170631 L50.8531962,66.5912796 Z M60.7133858,69.8263843 C60.911505,70.3715006 61.3435123,70.7160971 62.0094206,70.8601843 C62.5264301,70.9720532 62.9995084,70.8416973 63.4286698,70.4691126 C63.8578312,70.096528 64.1623499,69.4945691 64.3422351,68.6632178 C64.5239102,67.8235943 64.48673,67.1650183 64.2306934,66.6874699 C63.9746568,66.2099216 63.5943436,65.9165597 63.0897423,65.8073757 C62.527236,65.6856623 62.0247037,65.8020682 61.5821303,66.1565967 C61.1395569,66.5111253 60.8278849,67.1061243 60.6471047,67.9416117 C60.4931731,68.6530168 60.5152666,69.281268 60.7133858,69.8263843 L60.7133858,69.8263843 Z M64.2977987,65.3868432 C64.4694819,65.5538832 64.6479104,65.819798 64.8330897,66.1845957 L65.559339,62.8281867 L66.6326453,63.0604254 L64.6539182,72.205244 L63.6488567,71.987772 L63.8488773,71.0633636 C63.4997043,71.4164532 63.1275832,71.6455053 62.7325028,71.7505269 C62.3374224,71.8555484 61.9103364,71.8583894 61.451232,71.7590498 C60.7108743,71.5988535 60.1371362,71.1489031 59.7300004,70.4091851 C59.3228646,69.669467 59.2311669,68.7826117 59.4549047,67.7485927 C59.6643233,66.7807509 60.0928988,65.9956466 60.740644,65.3932562 C61.3883892,64.7908658 62.1713545,64.5890132 63.0895634,64.7876924 C63.5983008,64.8977714 64.0010419,65.0974863 64.2977987,65.3868432 L64.2977987,65.3868432 Z M71.434963,66.2021343 C71.8540728,66.4860951 72.1574421,66.8219373 72.3450798,67.2096711 C72.5265527,67.5795121 72.6250027,67.9959667 72.6404329,68.4590474 C72.6663874,68.7783833 72.6343043,69.2778441 72.5441828,69.957445 L67.6045161,69.3023983 C67.5348136,69.9889757 67.6235853,70.55889 67.870834,71.0121581 C68.1180828,71.4654262 68.5584281,71.7340573 69.1918832,71.8180595 C69.7833876,71.8964986 70.2811934,71.7640143 70.6853155,71.4206028 C70.9167192,71.2207718 71.0941179,70.9774982 71.217517,70.6907746 L72.3313017,70.838473 C72.2691142,71.0820878 72.1350038,71.3449754 71.9289665,71.6271437 C71.7229292,71.909312 71.5043396,72.1332498 71.2731913,72.2989639 C70.8846913,72.5889522 70.4288584,72.7590182 69.9056787,72.8091671 C69.6240984,72.8401283 69.3113153,72.8328005 68.9673198,72.7871834 C68.1283064,72.6759223 67.4577238,72.2764433 66.955552,71.5887346 C66.4533801,70.9010258 66.2751729,70.0076311 66.420925,68.9085235 C66.5644519,67.8261962 66.9746465,66.9862837 67.6515211,66.3887607 C68.3283957,65.7912377 69.1408634,65.5553423 70.0889485,65.6810674 C70.5671862,65.7444862 71.0158532,65.9181735 71.434963,66.2021343 L71.434963,66.2021343 Z M71.4993845,68.9032335 C71.5183265,68.4062913 71.4633677,67.9998729 71.3345064,67.683966 C71.0963912,67.0974406 70.6144675,66.7560626 69.8887209,66.6598217 C69.3685326,66.5908398 68.9073579,66.7207113 68.5051829,67.0494401 C68.1030079,67.378169 67.8530514,67.8305954 67.7553059,68.4067332 L71.4993845,68.9032335 Z M77.4279508,63.6490066 L78.5255997,63.6819967 L78.3629376,69.0941036 L81.380997,66.2953243 L82.8402989,66.339184 L80.1624662,68.8052606 L82.7819957,73.1388413 L81.3226937,73.0949817 L79.3065083,69.6051026 L78.322129,70.4518889 L78.2454699,73.002495 L77.1478211,72.9695049 L77.4279508,63.6490066 Z M87.7523414,66.245662 C88.2101092,66.4618458 88.5614837,66.7470806 88.8064755,67.1013749 C89.0426261,67.4389362 89.203903,67.8353156 89.2903111,68.2905248 C89.3650293,68.6020793 89.4100791,69.100538 89.4254617,69.7859157 L84.4438061,69.8977237 C84.4804372,70.5868574 84.6557328,71.1363609 84.9696982,71.5462508 C85.2836635,71.9561406 85.7600588,72.1539135 86.3988985,72.1395755 C86.995431,72.1261869 87.4669653,71.9187789 87.8135155,71.5173452 C88.0114629,71.2843281 88.1493709,71.0166833 88.2272437,70.7144026 L89.350496,70.6891924 C89.3264832,70.9394699 89.2343634,71.2198437 89.0741339,71.530322 C88.9139044,71.8408004 88.7323235,72.0956689 88.5293858,72.294935 C88.1900625,72.6411794 87.7657777,72.8792729 87.2565185,73.0092227 C86.9830405,73.0830864 86.6728464,73.1239107 86.3259268,73.131697 C85.4797815,73.1506878 84.7557763,72.8590016 84.1538895,72.2566295 C83.5520027,71.6542574 83.2386249,70.7988591 83.2137469,69.6904087 C83.1892487,68.5988813 83.4655025,67.7059106 84.0425166,67.0114701 C84.6195307,66.3170295 85.3860983,65.9590848 86.3422425,65.9376251 C86.8245454,65.9268003 87.2945736,66.0294783 87.7523414,66.245662 L87.7523414,66.245662 Z M88.2310733,68.904779 C88.1734257,68.4108285 88.0566657,68.0176828 87.8807898,67.7253301 C87.555372,67.1823623 87.0267132,66.9190959 86.2947975,66.935523 C85.7701874,66.9472973 85.3344476,67.1464945 84.987565,67.5331207 C84.6406823,67.9197469 84.4632187,68.4052102 84.4551688,68.9895253 L88.2310733,68.904779 Z M90.3146699,65.7362734 L91.3961148,65.6431225 L91.4789155,66.6044068 C91.7652079,66.1804855 92.0800922,65.8666634 92.4235778,65.6629311 C92.7670635,65.4591989 93.1580418,65.3384501 93.5965245,65.3006811 C94.5578136,65.2178799 95.2359667,65.497135 95.631004,66.1384546 C95.8481112,66.4892831 95.9860789,67.0062002 96.0449113,67.6892214 L96.419149,72.0339734 L95.2618133,72.1336612 L94.8941125,67.8648 C94.8585225,67.4516143 94.7686994,67.1238069 94.6246403,66.8813678 C94.3859474,66.4771816 94.0009873,66.2979705 93.4697486,66.343729 C93.1999131,66.3669714 92.9809275,66.413442 92.8127852,66.483142 C92.5087774,66.602772 92.2507088,66.8118864 92.0385714,67.1104915 C91.868091,67.3502914 91.7646524,67.5917461 91.7282527,67.834863 C91.691853,68.0779799 91.6927192,68.4208827 91.7308513,68.8635816 L92.0364515,72.4114796 L90.8980885,72.5095331 L90.3146699,65.7362734 Z M96.9975656,64.8627703 L98.1134167,64.6852552 L98.2650026,65.6381168 C98.4799504,65.2654063 98.6841141,64.9865428 98.8774997,64.8015178 C99.2088959,64.4874123 99.6107149,64.2927982 100.082969,64.2176698 C100.617911,64.1325685 101.069309,64.1957336 101.437175,64.4071671 C101.644997,64.5283661 101.8474,64.7232687 102.044393,64.9918806 C102.23797,64.5925749 102.490218,64.279281 102.801145,64.0519894 C103.112071,63.8246979 103.478581,63.6774792 103.900684,63.610329 C104.803399,63.4667206 105.469596,63.6949643 105.899294,64.2950669 C106.13067,64.618199 106.29356,65.0764842 106.387969,65.669936 L107.099026,70.1396091 L105.926756,70.3260996 L105.184783,65.6620929 C105.113643,65.2149144 104.952984,64.9255296 104.702801,64.7939297 C104.452618,64.6623299 104.16663,64.6221274 103.844828,64.6733211 C103.401829,64.7437956 103.044081,64.9528233 102.771574,65.3004106 C102.499067,65.6479978 102.417997,66.1686604 102.528363,66.8624139 L103.149666,70.7678926 L102.002471,70.9503941 L101.305375,66.5684846 C101.232906,66.1129476 101.125722,65.7893461 100.983819,65.5976704 C100.762606,65.3114865 100.417967,65.205628 99.9498926,65.2800916 C99.5236103,65.3479066 99.1622531,65.5746483 98.8658101,65.9603234 C98.5693672,66.3459986 98.4899592,66.9713779 98.6275839,67.8364802 L99.1940364,71.3971735 L98.0656477,71.5766831 L96.9975656,64.8627703 Z M110.819255,61.5989853 C111.317269,61.6899204 111.730273,61.8749886 112.058281,62.1541952 C112.373434,62.4195119 112.631398,62.7609527 112.832178,63.1785278 C112.984649,63.4603107 113.156612,63.9303314 113.34807,64.5886039 L108.563428,65.9802188 C108.776386,66.6366455 109.087349,67.1224282 109.496326,67.4375813 C109.905303,67.7527345 110.416572,67.8210808 111.030147,67.6426223 C111.603088,67.4759822 112.005259,67.154081 112.236674,66.6769088 C112.367899,66.4007561 112.432188,66.1066146 112.429546,65.7944756 L113.508376,65.4806975 C113.549661,65.7287116 113.532893,66.0233543 113.458072,66.3646345 C113.383251,66.7059146 113.273471,66.9989639 113.128729,67.2437912 C112.890076,67.6657753 112.541465,68.0051516 112.082884,68.2619303 C111.837672,68.4037647 111.54847,68.5231358 111.215271,68.620047 C110.402588,68.8564159 109.627873,68.7611268 108.8911,68.3341769 C108.154328,67.907227 107.631128,67.1614565 107.321485,66.0968428 C107.016569,65.0484828 107.053411,64.1144832 107.432011,63.2948158 C107.810612,62.4751485 108.459068,61.9317745 109.377398,61.6646777 C109.840627,61.5299474 110.321241,61.5080502 110.819255,61.5989853 L110.819255,61.5989853 Z M111.966975,64.0449669 C111.784002,63.5825481 111.569886,63.2327614 111.32462,62.9955965 C110.870288,62.5548096 110.291646,62.4366474 109.588675,62.6411065 C109.084813,62.7876552 108.715111,63.0924001 108.479559,63.5553503 C108.244008,64.0183005 108.197622,64.5330978 108.340399,65.0997577 L111.966975,64.0449669 Z M112.921864,60.3829092 L113.930221,59.9811428 L114.364881,61.0720553 C114.362854,60.8268752 114.462324,60.4877346 114.663293,60.0546233 C114.864262,59.6215119 115.175064,59.3211611 115.595706,59.1535618 C115.615362,59.1457301 115.64956,59.1343819 115.698301,59.1195169 C115.747043,59.104652 115.830764,59.0804047 115.949469,59.0467743 L116.395876,60.1671709 C116.328277,60.1804388 116.26716,60.1956797 116.212522,60.2128942 C116.157884,60.2301087 116.099116,60.2512464 116.036216,60.2763079 C115.501568,60.4893313 115.159287,60.8250013 115.009362,61.2833279 C114.859437,61.7416545 114.873757,62.1948914 115.05232,62.6430523 L116.499619,66.2754961 L115.438191,66.6984081 L112.921864,60.3829092 Z M115.353341,56.5159951 L116.346257,56.0469114 L118.659137,60.942618 L120.077022,57.0784944 L121.397084,56.4548572 L120.131228,59.868057 L124.43307,62.5393888 L123.113009,63.163026 L119.731858,60.9693808 L119.239391,62.1708492 L120.329401,64.4780872 L119.336485,64.9471709 L115.353341,56.5159951 Z M125.280008,53.9575165 C125.784769,53.9187412 126.23127,53.9926309 126.619525,54.1791879 C126.991814,54.3555827 127.328165,54.620148 127.628588,54.9728918 C127.847739,55.2066048 128.133637,55.6174006 128.486288,56.2052916 L124.213213,58.7685361 C124.586187,59.3491717 125.01052,59.7398427 125.486226,59.9405607 C125.961932,60.1412788 126.473764,60.0772855 127.021736,59.748579 C127.533419,59.4416412 127.840448,59.0280037 127.942832,58.5076542 C127.999471,58.207201 127.986802,57.9063824 127.904824,57.6051892 L128.868307,57.0272347 C128.971339,57.2565812 129.030094,57.5457928 129.044573,57.8948783 C129.059052,58.2439638 129.02745,58.555301 128.949767,58.8288994 C128.826342,59.2977188 128.575557,59.7146279 128.197405,60.0796392 C127.996353,60.2791987 127.747043,60.468227 127.449469,60.6467298 C126.723678,61.0821026 125.950214,61.1870729 125.129055,60.9616438 C124.307897,60.7362147 123.612159,60.1481157 123.04182,59.197329 C122.480189,58.2610582 122.278166,57.348425 122.435745,56.459402 C122.593324,55.570379 123.082178,54.8798922 123.902322,54.387921 C124.316024,54.1397585 124.775247,53.9962917 125.280008,53.9575165 L125.280008,53.9575165 Z M127.012323,56.030961 C126.717711,55.6303186 126.421641,55.3465254 126.124102,55.179573 C125.572567,54.8688966 124.982903,54.9018566 124.355094,55.2784541 C123.905103,55.5483852 123.625111,55.937169 123.515108,56.4448172 C123.405105,56.9524654 123.491233,57.4621221 123.773495,57.9738024 L127.012323,56.030961 Z M126.818113,52.2709584 L127.677937,51.6084608 L128.266823,52.3727486 C128.278799,51.8613493 128.374304,51.4271659 128.553341,51.0701853 C128.732377,50.7132046 128.996203,50.4004108 129.344828,50.1317945 C130.109119,49.5429047 130.830677,49.4116443 131.509523,49.7380091 C131.881725,49.9160013 132.277032,50.2765166 132.695453,50.8195659 L135.357067,54.2739456 L134.436904,54.9829343 L131.821782,51.5888931 C131.568663,51.2603818 131.316015,51.0330162 131.063832,50.9067895 C130.644643,50.6955507 130.223869,50.7526499 129.801498,51.078089 C129.58696,51.2433914 129.427763,51.4007777 129.323901,51.5502525 C129.132664,51.8151308 129.028421,52.1305062 129.011168,52.4963881 C128.997212,52.7902806 129.040572,53.0493556 129.141249,53.2736209 C129.241926,53.4978862 129.427861,53.7860027 129.699061,54.1379791 L131.872518,56.9588044 L130.96744,57.6561704 L126.818113,52.2709584 Z" id="Lees-de-kenmerken"></path>
                <path d="M0.9140625,0.392578125 L2.08007812,0.392578125 L2.08007812,7.97460938 L6.43945312,7.97460938 L6.43945312,9 L0.9140625,9 L0.9140625,0.392578125 Z M8.58984375,8.05078125 C8.81250111,8.22656338 9.07617035,8.31445312 9.38085938,8.31445312 C9.75195498,8.31445312 10.1113264,8.22851648 10.4589844,8.05664062 C11.0449248,7.77148295 11.3378906,7.30469074 11.3378906,6.65625 L11.3378906,5.80664062 C11.2089837,5.88867229 11.0429698,5.95703098 10.8398438,6.01171875 C10.6367177,6.06640652 10.437501,6.10546863 10.2421875,6.12890625 L9.60351562,6.2109375 C9.22070121,6.261719 8.93359471,6.34179633 8.7421875,6.45117188 C8.41796713,6.63476654 8.25585938,6.92773236 8.25585938,7.33007812 C8.25585938,7.63476715 8.36718639,7.87499912 8.58984375,8.05078125 L8.58984375,8.05078125 Z M10.8105469,5.19726562 C11.0527356,5.16601547 11.2148433,5.06445398 11.296875,4.89257812 C11.3437502,4.79882766 11.3671875,4.66406338 11.3671875,4.48828125 C11.3671875,4.12890445 11.2392591,3.86816487 10.9833984,3.70605469 C10.7275378,3.5439445 10.3613305,3.46289062 9.88476562,3.46289062 C9.33398162,3.46289062 8.94336053,3.61132664 8.71289062,3.90820312 C8.58398373,4.07226645 8.5000002,4.31640463 8.4609375,4.640625 L7.4765625,4.640625 C7.49609385,3.86718363 7.7470679,3.32910308 8.22949219,3.02636719 C8.71191647,2.7236313 9.27148119,2.57226562 9.90820312,2.57226562 C10.6464881,2.57226562 11.2460914,2.71288922 11.7070312,2.99414062 C12.1640648,3.27539203 12.3925781,3.71288766 12.3925781,4.30664062 L12.3925781,7.921875 C12.3925781,8.03125055 12.4150388,8.11914029 12.4599609,8.18554688 C12.504883,8.25195346 12.5996087,8.28515625 12.7441406,8.28515625 C12.7910159,8.28515625 12.8437497,8.28222659 12.9023438,8.27636719 C12.9609378,8.27050778 13.0234372,8.26171881 13.0898438,8.25 L13.0898438,9.02929688 C12.9257804,9.07617211 12.8007817,9.10546869 12.7148438,9.1171875 C12.6289058,9.12890631 12.5117195,9.13476562 12.3632812,9.13476562 C11.9999982,9.13476562 11.7363289,9.00586066 11.5722656,8.74804688 C11.4863277,8.61132744 11.4257814,8.41797 11.390625,8.16796875 C11.1757802,8.44922016 10.8671895,8.69335834 10.4648438,8.90039062 C10.062498,9.10742291 9.61914305,9.2109375 9.13476562,9.2109375 C8.55273146,9.2109375 8.07715028,9.03418146 7.70800781,8.68066406 C7.33886534,8.32714667 7.15429688,7.88476828 7.15429688,7.35351562 C7.15429688,6.77148146 7.33593568,6.3203141 7.69921875,6 C8.06250182,5.6796859 8.53905955,5.48242225 9.12890625,5.40820312 L10.8105469,5.19726562 Z M17.625,2.9765625 C17.8242197,3.11328193 18.0273427,3.31249869 18.234375,3.57421875 L18.234375,2.78320312 L19.2070312,2.78320312 L19.2070312,8.49023438 C19.2070312,9.28711336 19.0898449,9.91601332 18.8554688,10.3769531 C18.4179666,11.2285199 17.5918029,11.6542969 16.3769531,11.6542969 C15.7011685,11.6542969 15.1328148,11.5029312 14.671875,11.2001953 C14.2109352,10.8974594 13.9531253,10.4238313 13.8984375,9.77929688 L14.9707031,9.77929688 C15.0214846,10.0605483 15.1230461,10.277343 15.2753906,10.4296875 C15.5136731,10.6640637 15.8886693,10.78125 16.4003906,10.78125 C17.2089884,10.78125 17.73828,10.4960966 17.9882812,9.92578125 C18.1367195,9.58984207 18.2050782,8.99023869 18.1933594,8.12695312 C17.9824208,8.44726723 17.7285171,8.68554609 17.4316406,8.84179688 C17.1347641,8.99804766 16.7421899,9.07617188 16.2539062,9.07617188 C15.5742154,9.07617188 14.9794947,8.83496335 14.4697266,8.35253906 C13.9599584,7.87011478 13.7050781,7.07227119 13.7050781,5.95898438 C13.7050781,4.90819787 13.9619115,4.08789357 14.4755859,3.49804688 C14.9892604,2.90820018 15.6093714,2.61328125 16.3359375,2.61328125 C16.8281275,2.61328125 17.2578107,2.73437379 17.625,2.9765625 L17.625,2.9765625 Z M17.7539062,4.10742188 C17.4335921,3.73242 17.0253931,3.54492188 16.5292969,3.54492188 C15.7871057,3.54492188 15.2792982,3.89257465 15.0058594,4.58789062 C14.8613274,4.95898623 14.7890625,5.44530949 14.7890625,6.046875 C14.7890625,6.75390979 14.9326158,7.29199034 15.2197266,7.66113281 C15.5068374,8.03027528 15.8925757,8.21484375 16.3769531,8.21484375 C17.1347694,8.21484375 17.6679672,7.87305029 17.9765625,7.18945312 C18.1484384,6.80273244 18.234375,6.35156508 18.234375,5.8359375 C18.234375,5.05858986 18.0742204,4.48242375 17.7539062,4.10742188 L17.7539062,4.10742188 Z M24.703125,2.89746094 C25.1210958,3.10644636 25.439452,3.37695146 25.6582031,3.70898438 C25.8691417,4.02539221 26.0097653,4.39452914 26.0800781,4.81640625 C26.1425784,5.1054702 26.1738281,5.56640309 26.1738281,6.19921875 L21.5742188,6.19921875 C21.5937501,6.83594068 21.7441392,7.34667776 22.0253906,7.73144531 C22.306642,8.11621286 22.7421846,8.30859375 23.3320312,8.30859375 C23.8828153,8.30859375 24.322264,8.12695494 24.6503906,7.76367188 C24.8378916,7.55273332 24.9707027,7.30859514 25.0488281,7.03125 L26.0859375,7.03125 C26.0585936,7.2617199 25.9677742,7.51855327 25.8134766,7.80175781 C25.6591789,8.08496235 25.4863291,8.31640535 25.2949219,8.49609375 C24.9746078,8.80859531 24.5781274,9.0195307 24.1054688,9.12890625 C23.8515612,9.19140656 23.5644547,9.22265625 23.2441406,9.22265625 C22.4628867,9.22265625 21.800784,8.9384794 21.2578125,8.37011719 C20.714841,7.80175497 20.4433594,7.00586449 20.4433594,5.98242188 C20.4433594,4.97460434 20.7167941,4.15625314 21.2636719,3.52734375 C21.8105496,2.89843436 22.5253862,2.58398438 23.4082031,2.58398438 C23.8535179,2.58398438 24.2851542,2.68847552 24.703125,2.89746094 L24.703125,2.89746094 Z M25.0898438,5.36132812 C25.0468748,4.90429459 24.9472664,4.53906387 24.7910156,4.265625 C24.5019517,3.75780996 24.0195346,3.50390625 23.34375,3.50390625 C22.8593726,3.50390625 22.4531266,3.67870919 22.125,4.02832031 C21.7968734,4.37793144 21.623047,4.82226293 21.6035156,5.36132812 L25.0898438,5.36132812 Z M27.4980469,2.72460938 L28.5,2.72460938 L28.5,3.80859375 C28.5820317,3.5976552 28.7832015,3.34082183 29.1035156,3.03808594 C29.4238297,2.73535005 29.7929667,2.58398438 30.2109375,2.58398438 C30.2304688,2.58398438 30.2636716,2.58593748 30.3105469,2.58984375 C30.3574221,2.59375002 30.4374994,2.60156244 30.5507812,2.61328125 L30.5507812,3.7265625 C30.4882809,3.71484369 30.4306643,3.70703127 30.3779297,3.703125 C30.325195,3.69921873 30.2675784,3.69726562 30.2050781,3.69726562 C29.6738255,3.69726562 29.2656264,3.86816235 28.9804688,4.20996094 C28.6953111,4.55175952 28.5527344,4.94531027 28.5527344,5.390625 L28.5527344,9 L27.4980469,9 L27.4980469,2.72460938 Z M34.828125,2.72460938 L35.8300781,2.72460938 L35.8300781,3.80859375 C35.9121098,3.5976552 36.1132796,3.34082183 36.4335938,3.03808594 C36.7539079,2.73535005 37.1230448,2.58398438 37.5410156,2.58398438 C37.560547,2.58398438 37.5937498,2.58593748 37.640625,2.58984375 C37.6875002,2.59375002 37.7675776,2.60156244 37.8808594,2.61328125 L37.8808594,3.7265625 C37.8183591,3.71484369 37.7607425,3.70703127 37.7080078,3.703125 C37.6552732,3.69921873 37.5976566,3.69726562 37.5351562,3.69726562 C37.0039036,3.69726562 36.5957046,3.86816235 36.3105469,4.20996094 C36.0253892,4.55175952 35.8828125,4.94531027 35.8828125,5.390625 L35.8828125,9 L34.828125,9 L34.828125,2.72460938 Z M38.7949219,2.75390625 L39.8671875,2.75390625 L39.8671875,9 L38.7949219,9 L38.7949219,2.75390625 Z M38.7949219,0.392578125 L39.8671875,0.392578125 L39.8671875,1.58789062 L38.7949219,1.58789062 L38.7949219,0.392578125 Z M42.0878906,7.03125 C42.1191408,7.38281426 42.2070305,7.65234281 42.3515625,7.83984375 C42.6171888,8.1796892 43.0781217,8.34960938 43.734375,8.34960938 C44.125002,8.34960938 44.4687485,8.26464929 44.765625,8.09472656 C45.0625015,7.92480384 45.2109375,7.66211115 45.2109375,7.30664062 C45.2109375,7.03710803 45.0917981,6.83203195 44.8535156,6.69140625 C44.7011711,6.60546832 44.4003929,6.50585994 43.9511719,6.39257812 L43.1132812,6.18164062 C42.5781223,6.04882746 42.183595,5.90039145 41.9296875,5.73632812 C41.4765602,5.45117045 41.25,5.05664314 41.25,4.55273438 C41.25,3.95898141 41.463865,3.47851746 41.8916016,3.11132812 C42.3193381,2.74413879 42.8945276,2.56054688 43.6171875,2.56054688 C44.5625047,2.56054688 45.2441385,2.83788785 45.6621094,3.39257812 C45.9238294,3.74414238 46.0507813,4.12304484 46.0429688,4.52929688 L45.046875,4.52929688 C45.0273437,4.29101443 44.9433601,4.07421973 44.7949219,3.87890625 C44.5527332,3.60156111 44.1328155,3.46289062 43.5351562,3.46289062 C43.1367168,3.46289062 42.834962,3.53906174 42.6298828,3.69140625 C42.4248037,3.84375076 42.3222656,4.04492062 42.3222656,4.29492188 C42.3222656,4.56836074 42.4570299,4.78710855 42.7265625,4.95117188 C42.8828133,5.04882861 43.1132797,5.13476525 43.4179688,5.20898438 L44.1152344,5.37890625 C44.8730507,5.56250092 45.3808581,5.74023352 45.6386719,5.91210938 C46.0488302,6.18164197 46.2539062,6.60546586 46.2539062,7.18359375 C46.2539062,7.74219029 46.0419943,8.22460734 45.6181641,8.63085938 C45.1943338,9.03711141 44.5488325,9.24023438 43.6816406,9.24023438 C42.7480422,9.24023438 42.086916,9.02832243 41.6982422,8.60449219 C41.3095684,8.18066194 41.1015626,7.65625312 41.0742188,7.03125 L42.0878906,7.03125 Z M47.4609375,2.75390625 L48.5332031,2.75390625 L48.5332031,9 L47.4609375,9 L47.4609375,2.75390625 Z M47.4609375,0.392578125 L48.5332031,0.392578125 L48.5332031,1.58789062 L47.4609375,1.58789062 L47.4609375,0.392578125 Z M54.2724609,3.05859375 C54.7158225,3.40234547 54.9824214,3.99413643 55.0722656,4.83398438 L54.046875,4.83398438 C53.9843747,4.44726369 53.841798,4.12597784 53.6191406,3.87011719 C53.3964833,3.61425653 53.039065,3.48632812 52.546875,3.48632812 C51.8749966,3.48632812 51.3945327,3.81444984 51.1054688,4.47070312 C50.9179678,4.8964865 50.8242188,5.42187187 50.8242188,6.046875 C50.8242188,6.67578439 50.9570299,7.20507598 51.2226562,7.63476562 C51.4882826,8.06445527 51.9062471,8.27929688 52.4765625,8.27929688 C52.9140647,8.27929688 53.2607409,8.14550915 53.5166016,7.87792969 C53.7724622,7.61035022 53.9492183,7.24414295 54.046875,6.77929688 L55.0722656,6.77929688 C54.9550775,7.61133229 54.6621117,8.21972464 54.1933594,8.60449219 C53.724607,8.98925974 53.1250037,9.18164062 52.3945312,9.18164062 C51.5742146,9.18164062 50.9199243,8.88183894 50.4316406,8.28222656 C49.9433569,7.68261419 49.6992188,6.93359824 49.6992188,6.03515625 C49.6992188,4.93358824 49.9667942,4.07617494 50.5019531,3.46289062 C51.0371121,2.84960631 51.7187459,2.54296875 52.546875,2.54296875 C53.2539098,2.54296875 53.8290993,2.71484203 54.2724609,3.05859375 L54.2724609,3.05859375 Z M60.0556641,7.52636719 C60.315431,6.99706767 60.4453125,6.40820637 60.4453125,5.75976562 C60.4453125,5.1738252 60.3515634,4.69726746 60.1640625,4.33007812 C59.867186,3.75195023 59.3554724,3.46289062 58.6289062,3.46289062 C57.9843718,3.46289062 57.5156265,3.70898191 57.2226562,4.20117188 C56.929686,4.69336184 56.7832031,5.2871059 56.7832031,5.98242188 C56.7832031,6.65039396 56.929686,7.20702902 57.2226562,7.65234375 C57.5156265,8.09765848 57.9804656,8.3203125 58.6171875,8.3203125 C59.3164097,8.3203125 59.7958971,8.05566671 60.0556641,7.52636719 L60.0556641,7.52636719 Z M60.7089844,3.3515625 C61.2675809,3.8906277 61.546875,4.68358852 61.546875,5.73046875 C61.546875,6.74219256 61.3007837,7.5781217 60.8085938,8.23828125 C60.3164038,8.8984408 59.5527396,9.22851562 58.5175781,9.22851562 C57.6542926,9.22851562 56.9687525,8.93652636 56.4609375,8.35253906 C55.9531225,7.76855177 55.6992188,6.98437992 55.6992188,6 C55.6992188,4.94530723 55.9667942,4.10547187 56.5019531,3.48046875 C57.0371121,2.85546563 57.7558549,2.54296875 58.6582031,2.54296875 C59.4668009,2.54296875 60.1503878,2.8124973 60.7089844,3.3515625 L60.7089844,3.3515625 Z" id="Lager-risico"></path>
                <path d="M17.4375,22.7265625 L17.4375,27.3671875 L21.5273438,27.3671875 C22.3398478,27.3671875 22.9492167,27.2734384 23.3554688,27.0859375 C24.0742223,26.7578109 24.4335938,26.1093798 24.4335938,25.140625 C24.4335938,24.0937448 24.085941,23.3906268 23.390625,23.03125 C22.999998,22.828124 22.4140664,22.7265625 21.6328125,22.7265625 L17.4375,22.7265625 Z M25.1777344,20.171875 C25.8300814,20.4453139 26.3828102,20.8476536 26.8359375,21.3789062 C27.2109394,21.8164084 27.5078114,22.3007786 27.7265625,22.8320312 C27.9453136,23.3632839 28.0546875,23.9687466 28.0546875,24.6484375 C28.0546875,25.4687541 27.8476583,26.2753867 27.4335938,27.0683594 C27.0195292,27.8613321 26.3359423,28.4218734 25.3828125,28.75 C26.1796915,29.0703141 26.744139,29.5253877 27.0761719,30.1152344 C27.4082048,30.7050811 27.5742188,31.6054627 27.5742188,32.8164062 L27.5742188,33.9765625 C27.5742188,34.7656289 27.6054684,35.3007798 27.6679688,35.5820312 C27.7617192,36.027346 27.980467,36.3554677 28.3242188,36.5664062 L28.3242188,37 L24.3515625,37 C24.242187,36.6171856 24.1640627,36.3085949 24.1171875,36.0742188 C24.023437,35.5898413 23.9726563,35.0937525 23.9648438,34.5859375 L23.9414062,32.9804688 C23.9257812,31.8789007 23.7246113,31.1445331 23.3378906,30.7773438 C22.9511699,30.4101544 22.2265678,30.2265625 21.1640625,30.2265625 L17.4375,30.2265625 L17.4375,37 L13.9101562,37 L13.9101562,19.7265625 L22.3828125,19.7265625 C23.5937561,19.7500001 24.5253874,19.8984361 25.1777344,20.171875 L25.1777344,20.171875 Z M34.3242188,22.703125 L30.9375,22.703125 L30.9375,19.6210938 L34.3242188,19.6210938 L34.3242188,22.703125 Z M30.9375,24.2265625 L34.3242188,24.2265625 L34.3242188,37 L30.9375,37 L30.9375,24.2265625 Z M40.1601562,32.921875 C40.2304691,33.515628 40.3828113,33.9374987 40.6171875,34.1875 C41.0312521,34.6328147 41.7968694,34.8554688 42.9140625,34.8554688 C43.5703158,34.8554688 44.0917949,34.7578135 44.4785156,34.5625 C44.8652363,34.3671865 45.0585938,34.0742207 45.0585938,33.6835938 C45.0585938,33.3085919 44.9023453,33.0234385 44.5898438,32.828125 C44.2773422,32.6328115 43.1171975,32.2968774 41.109375,31.8203125 C39.6640553,31.4609357 38.6445342,31.0117214 38.0507812,30.4726562 C37.4570283,29.9414036 37.1601562,29.1757863 37.1601562,28.1757812 C37.1601562,26.9960879 37.6230422,25.9824261 38.5488281,25.1347656 C39.474614,24.2871051 40.7773354,23.8632812 42.4570312,23.8632812 C44.0507892,23.8632812 45.3496044,24.1816374 46.3535156,24.8183594 C47.3574269,25.4550813 47.933593,26.5546797 48.0820312,28.1171875 L44.7421875,28.1171875 C44.6953123,27.6874979 44.5742197,27.3476575 44.3789062,27.0976562 C44.0117169,26.644529 43.3867232,26.4179688 42.5039062,26.4179688 C41.7773401,26.4179688 41.2597672,26.5312489 40.9511719,26.7578125 C40.6425766,26.9843761 40.4882812,27.2499985 40.4882812,27.5546875 C40.4882812,27.9375019 40.6523421,28.2148429 40.9804688,28.3867188 C41.3085954,28.5664071 42.46874,28.8749978 44.4609375,29.3125 C45.7890691,29.6250016 46.7851529,30.0976531 47.4492188,30.7304688 C48.105472,31.371097 48.4335938,32.1718702 48.4335938,33.1328125 C48.4335938,34.3984438 47.9628953,35.4316366 47.0214844,36.2324219 C46.0800734,37.0332071 44.6250098,37.4335938 42.65625,37.4335938 C40.6484275,37.4335938 39.1660204,37.0097699 38.2089844,36.1621094 C37.2519483,35.3144489 36.7734375,34.2343816 36.7734375,32.921875 L40.1601562,32.921875 Z M54.3398438,22.703125 L50.953125,22.703125 L50.953125,19.6210938 L54.3398438,19.6210938 L54.3398438,22.703125 Z M50.953125,24.2265625 L54.3398438,24.2265625 L54.3398438,37 L50.953125,37 L50.953125,24.2265625 Z M65.203125,28.8085938 C65.1406247,28.3320289 64.98047,27.9023457 64.7226562,27.5195312 C64.3476544,27.0039037 63.7656289,26.7460938 62.9765625,26.7460938 C61.8515569,26.7460938 61.0820333,27.3046819 60.6679688,28.421875 C60.4492177,29.015628 60.3398438,29.8046826 60.3398438,30.7890625 C60.3398438,31.7265672 60.4492177,32.4804659 60.6679688,33.0507812 C61.0664082,34.1132866 61.8164007,34.6445312 62.9179688,34.6445312 C63.6992227,34.6445312 64.2539046,34.4335959 64.5820312,34.0117188 C64.9101579,33.5898416 65.1093746,33.0429721 65.1796875,32.3710938 L68.5898438,32.3710938 C68.5117184,33.3867238 68.1445345,34.3476517 67.4882812,35.2539062 C66.441401,36.7148511 64.8906353,37.4453125 62.8359375,37.4453125 C60.7812397,37.4453125 59.2695361,36.8359436 58.3007812,35.6171875 C57.3320264,34.3984314 56.8476562,32.816416 56.8476562,30.8710938 C56.8476562,28.6757703 57.3828071,26.9687561 58.453125,25.75 C59.5234429,24.5312439 60.9999906,23.921875 62.8828125,23.921875 C64.484383,23.921875 65.7949168,24.2812464 66.8144531,25 C67.8339895,25.7187536 68.4374991,26.9882721 68.625,28.8085938 L65.203125,28.8085938 Z M78.9023438,33.6015625 C79.4257839,32.9062465 79.6875,31.9179752 79.6875,30.6367188 C79.6875,29.3554623 79.4257839,28.3691441 78.9023438,27.6777344 C78.3789036,26.9863247 77.6289111,26.640625 76.6523438,26.640625 C75.6757764,26.640625 74.9238308,26.9863247 74.3964844,27.6777344 C73.869138,28.3691441 73.6054688,29.3554623 73.6054688,30.6367188 C73.6054688,31.9179752 73.869138,32.9062465 74.3964844,33.6015625 C74.9238308,34.2968785 75.6757764,34.6445312 76.6523438,34.6445312 C77.6289111,34.6445312 78.3789036,34.2968785 78.9023438,33.6015625 L78.9023438,33.6015625 Z M81.5742188,35.4472656 C80.4960884,36.7793035 78.859386,37.4453125 76.6640625,37.4453125 C74.468739,37.4453125 72.8320366,36.7793035 71.7539062,35.4472656 C70.6757759,34.1152277 70.1367188,32.5117281 70.1367188,30.6367188 C70.1367188,28.7929595 70.6757759,27.1953193 71.7539062,25.84375 C72.8320366,24.4921807 74.468739,23.8164062 76.6640625,23.8164062 C78.859386,23.8164062 80.4960884,24.4921807 81.5742188,25.84375 C82.6523491,27.1953193 83.1914062,28.7929595 83.1914062,30.6367188 C83.1914062,32.5117281 82.6523491,34.1152277 81.5742188,35.4472656 L81.5742188,35.4472656 Z M101.519531,24.2734375 C102.066409,24.4921886 102.562498,24.8749973 103.007812,25.421875 C103.367189,25.8671897 103.609374,26.4140593 103.734375,27.0625 C103.8125,27.4921896 103.851562,28.1210896 103.851562,28.9492188 L103.828125,37 L100.40625,37 L100.40625,28.8671875 C100.40625,28.3828101 100.328126,27.9843766 100.171875,27.671875 C99.8749985,27.078122 99.328129,26.78125 98.53125,26.78125 C97.6093704,26.78125 96.972658,27.1640587 96.6210938,27.9296875 C96.4414054,28.3359395 96.3515625,28.8242159 96.3515625,29.3945312 L96.3515625,37 L92.9882812,37 L92.9882812,29.3945312 C92.9882812,28.636715 92.910157,28.0859392 92.7539062,27.7421875 C92.4726548,27.1249969 91.9218791,26.8164062 91.1015625,26.8164062 C90.1484327,26.8164062 89.5078141,27.1249969 89.1796875,27.7421875 C88.9999991,28.0937518 88.9101562,28.617184 88.9101562,29.3125 L88.9101562,37 L85.5234375,37 L85.5234375,24.25 L88.7695312,24.25 L88.7695312,26.1132812 C89.1835958,25.4492154 89.5742169,24.9765639 89.9414062,24.6953125 C90.589847,24.19531 91.4296823,23.9453125 92.4609375,23.9453125 C93.4375049,23.9453125 94.2265595,24.1601541 94.828125,24.5898438 C95.3125024,24.9882832 95.6796863,25.4999969 95.9296875,26.125 C96.3671897,25.3749963 96.910153,24.8242205 97.5585938,24.4726562 C98.2460972,24.121092 99.0117145,23.9453125 99.8554688,23.9453125 C100.417972,23.9453125 100.972654,24.0546864 101.519531,24.2734375 L101.519531,24.2734375 Z M110.162109,27.3671875 C109.736326,27.8515649 109.468751,28.5078084 109.359375,29.3359375 L114.550781,29.3359375 C114.496093,28.4531206 114.228518,27.7832054 113.748047,27.3261719 C113.267576,26.8691383 112.671879,26.640625 111.960938,26.640625 C111.187496,26.640625 110.587893,26.8828101 110.162109,27.3671875 L110.162109,27.3671875 Z M114.832031,24.484375 C115.683598,24.8828145 116.386716,25.5117145 116.941406,26.3710938 C117.441409,27.12891 117.765624,28.0078075 117.914062,29.0078125 C118,29.5937529 118.035156,30.4374945 118.019531,31.5390625 L109.277344,31.5390625 C109.324219,32.8203189 109.726559,33.7187474 110.484375,34.234375 C110.945315,34.5546891 111.499997,34.7148438 112.148438,34.7148438 C112.835941,34.7148438 113.394529,34.5195332 113.824219,34.1289062 C114.058595,33.9179677 114.265624,33.6250019 114.445312,33.25 L117.855469,33.25 C117.769531,34.0078163 117.375004,34.7773398 116.671875,35.5585938 C115.57812,36.8007875 114.046885,37.421875 112.078125,37.421875 C110.453117,37.421875 109.019537,36.8984427 107.777344,35.8515625 C106.53515,34.8046823 105.914062,33.1015743 105.914062,30.7421875 C105.914062,28.5312389 106.474604,26.8359434 107.595703,25.65625 C108.716802,24.4765566 110.171866,23.8867188 111.960938,23.8867188 C113.023443,23.8867188 113.980464,24.0859355 114.832031,24.484375 L114.832031,24.484375 Z M118.957031,26.7226562 L118.957031,24.34375 L120.738281,24.34375 L120.738281,20.78125 L124.042969,20.78125 L124.042969,24.34375 L126.117188,24.34375 L126.117188,26.7226562 L124.042969,26.7226562 L124.042969,33.4726562 C124.042969,33.9960964 124.109374,34.322265 124.242188,34.4511719 C124.375001,34.5800788 124.781247,34.6445312 125.460938,34.6445312 C125.562501,34.6445312 125.669921,34.6425781 125.783203,34.6386719 C125.896485,34.6347656 126.007812,34.6289063 126.117188,34.6210938 L126.117188,37.1171875 L124.535156,37.1757812 C122.957023,37.230469 121.878909,36.9570343 121.300781,36.3554688 C120.925779,35.9726543 120.738281,35.3828165 120.738281,34.5859375 L120.738281,26.7226562 L118.957031,26.7226562 Z M131.501953,27.3671875 C131.07617,27.8515649 130.808594,28.5078084 130.699219,29.3359375 L135.890625,29.3359375 C135.835937,28.4531206 135.568362,27.7832054 135.087891,27.3261719 C134.607419,26.8691383 134.011722,26.640625 133.300781,26.640625 C132.52734,26.640625 131.927737,26.8828101 131.501953,27.3671875 L131.501953,27.3671875 Z M136.171875,24.484375 C137.023442,24.8828145 137.72656,25.5117145 138.28125,26.3710938 C138.781252,27.12891 139.105468,28.0078075 139.253906,29.0078125 C139.339844,29.5937529 139.375,30.4374945 139.359375,31.5390625 L130.617188,31.5390625 C130.664063,32.8203189 131.066402,33.7187474 131.824219,34.234375 C132.285159,34.5546891 132.839841,34.7148438 133.488281,34.7148438 C134.175785,34.7148438 134.734373,34.5195332 135.164062,34.1289062 C135.398439,33.9179677 135.605468,33.6250019 135.785156,33.25 L139.195312,33.25 C139.109375,34.0078163 138.714847,34.7773398 138.011719,35.5585938 C136.917963,36.8007875 135.386729,37.421875 133.417969,37.421875 C131.792961,37.421875 130.359381,36.8984427 129.117188,35.8515625 C127.874994,34.8046823 127.253906,33.1015743 127.253906,30.7421875 C127.253906,28.5312389 127.814448,26.8359434 128.935547,25.65625 C130.056646,24.4765566 131.51171,23.8867188 133.300781,23.8867188 C134.363287,23.8867188 135.320308,24.0859355 136.171875,24.484375 L136.171875,24.484375 Z M148.705078,23.9277344 C148.748047,23.9316406 148.843749,23.9375 148.992188,23.9453125 L148.992188,27.3671875 C148.781249,27.3437499 148.593751,27.328125 148.429688,27.3203125 C148.265624,27.3125 148.132813,27.3085938 148.03125,27.3085938 C146.687493,27.3085938 145.785159,27.7460894 145.324219,28.6210938 C145.066405,29.1132837 144.9375,29.8710886 144.9375,30.8945312 L144.9375,37 L141.574219,37 L141.574219,24.2265625 L144.761719,24.2265625 L144.761719,26.453125 C145.277346,25.6015582 145.726561,25.0195328 146.109375,24.7070312 C146.734378,24.1835911 147.54687,23.921875 148.546875,23.921875 C148.609375,23.921875 148.662109,23.9238281 148.705078,23.9277344 L148.705078,23.9277344 Z" id="Risicometer"></path>
                <path d="M97.9433594,0.392578125 L99.1210938,0.392578125 L99.1210938,3.94921875 L103.597656,3.94921875 L103.597656,0.392578125 L104.775391,0.392578125 L104.775391,9 L103.597656,9 L103.597656,4.97460938 L99.1210938,4.97460938 L99.1210938,9 L97.9433594,9 L97.9433594,0.392578125 Z M110.368164,7.52636719 C110.627931,6.99706767 110.757812,6.40820637 110.757812,5.75976562 C110.757812,5.1738252 110.664063,4.69726746 110.476562,4.33007812 C110.179686,3.75195023 109.667972,3.46289062 108.941406,3.46289062 C108.296872,3.46289062 107.828126,3.70898191 107.535156,4.20117188 C107.242186,4.69336184 107.095703,5.2871059 107.095703,5.98242188 C107.095703,6.65039396 107.242186,7.20702902 107.535156,7.65234375 C107.828126,8.09765848 108.292966,8.3203125 108.929688,8.3203125 C109.62891,8.3203125 110.108397,8.05566671 110.368164,7.52636719 L110.368164,7.52636719 Z M111.021484,3.3515625 C111.580081,3.8906277 111.859375,4.68358852 111.859375,5.73046875 C111.859375,6.74219256 111.613284,7.5781217 111.121094,8.23828125 C110.628904,8.8984408 109.86524,9.22851562 108.830078,9.22851562 C107.966793,9.22851562 107.281253,8.93652636 106.773438,8.35253906 C106.265622,7.76855177 106.011719,6.98437992 106.011719,6 C106.011719,4.94530723 106.279294,4.10547187 106.814453,3.48046875 C107.349612,2.85546563 108.068355,2.54296875 108.970703,2.54296875 C109.779301,2.54296875 110.462888,2.8124973 111.021484,3.3515625 L111.021484,3.3515625 Z M116.617188,2.9765625 C116.816407,3.11328193 117.01953,3.31249869 117.226562,3.57421875 L117.226562,2.78320312 L118.199219,2.78320312 L118.199219,8.49023438 C118.199219,9.28711336 118.082032,9.91601332 117.847656,10.3769531 C117.410154,11.2285199 116.58399,11.6542969 115.369141,11.6542969 C114.693356,11.6542969 114.125002,11.5029312 113.664062,11.2001953 C113.203123,10.8974594 112.945313,10.4238313 112.890625,9.77929688 L113.962891,9.77929688 C114.013672,10.0605483 114.115234,10.277343 114.267578,10.4296875 C114.505861,10.6640637 114.880857,10.78125 115.392578,10.78125 C116.201176,10.78125 116.730468,10.4960966 116.980469,9.92578125 C117.128907,9.58984207 117.197266,8.99023869 117.185547,8.12695312 C116.974608,8.44726723 116.720705,8.68554609 116.423828,8.84179688 C116.126952,8.99804766 115.734377,9.07617188 115.246094,9.07617188 C114.566403,9.07617188 113.971682,8.83496335 113.461914,8.35253906 C112.952146,7.87011478 112.697266,7.07227119 112.697266,5.95898438 C112.697266,4.90819787 112.954099,4.08789357 113.467773,3.49804688 C113.981448,2.90820018 114.601559,2.61328125 115.328125,2.61328125 C115.820315,2.61328125 116.249998,2.73437379 116.617188,2.9765625 L116.617188,2.9765625 Z M116.746094,4.10742188 C116.42578,3.73242 116.017581,3.54492188 115.521484,3.54492188 C114.779293,3.54492188 114.271486,3.89257465 113.998047,4.58789062 C113.853515,4.95898623 113.78125,5.44530949 113.78125,6.046875 C113.78125,6.75390979 113.924803,7.29199034 114.211914,7.66113281 C114.499025,8.03027528 114.884763,8.21484375 115.369141,8.21484375 C116.126957,8.21484375 116.660155,7.87305029 116.96875,7.18945312 C117.140626,6.80273244 117.226562,6.35156508 117.226562,5.8359375 C117.226562,5.05858986 117.066408,4.48242375 116.746094,4.10742188 L116.746094,4.10742188 Z M123.695312,2.89746094 C124.113283,3.10644636 124.43164,3.37695146 124.650391,3.70898438 C124.861329,4.02539221 125.001953,4.39452914 125.072266,4.81640625 C125.134766,5.1054702 125.166016,5.56640309 125.166016,6.19921875 L120.566406,6.19921875 C120.585938,6.83594068 120.736327,7.34667776 121.017578,7.73144531 C121.29883,8.11621286 121.734372,8.30859375 122.324219,8.30859375 C122.875003,8.30859375 123.314451,8.12695494 123.642578,7.76367188 C123.830079,7.55273332 123.96289,7.30859514 124.041016,7.03125 L125.078125,7.03125 C125.050781,7.2617199 124.959962,7.51855327 124.805664,7.80175781 C124.651366,8.08496235 124.478517,8.31640535 124.287109,8.49609375 C123.966795,8.80859531 123.570315,9.0195307 123.097656,9.12890625 C122.843749,9.19140656 122.556642,9.22265625 122.236328,9.22265625 C121.455074,9.22265625 120.792971,8.9384794 120.25,8.37011719 C119.707029,7.80175497 119.435547,7.00586449 119.435547,5.98242188 C119.435547,4.97460434 119.708982,4.15625314 120.255859,3.52734375 C120.802737,2.89843436 121.517574,2.58398438 122.400391,2.58398438 C122.845705,2.58398438 123.277342,2.68847552 123.695312,2.89746094 L123.695312,2.89746094 Z M124.082031,5.36132812 C124.039062,4.90429459 123.939454,4.53906387 123.783203,4.265625 C123.494139,3.75780996 123.011722,3.50390625 122.335938,3.50390625 C121.85156,3.50390625 121.445314,3.67870919 121.117188,4.02832031 C120.789061,4.37793144 120.615234,4.82226293 120.595703,5.36132812 L124.082031,5.36132812 Z M126.490234,2.72460938 L127.492188,2.72460938 L127.492188,3.80859375 C127.574219,3.5976552 127.775389,3.34082183 128.095703,3.03808594 C128.416017,2.73535005 128.785154,2.58398438 129.203125,2.58398438 C129.222656,2.58398438 129.255859,2.58593748 129.302734,2.58984375 C129.34961,2.59375002 129.429687,2.60156244 129.542969,2.61328125 L129.542969,3.7265625 C129.480468,3.71484369 129.422852,3.70703127 129.370117,3.703125 C129.317383,3.69921873 129.259766,3.69726562 129.197266,3.69726562 C128.666013,3.69726562 128.257814,3.86816235 127.972656,4.20996094 C127.687499,4.55175952 127.544922,4.94531027 127.544922,5.390625 L127.544922,9 L126.490234,9 L126.490234,2.72460938 Z M133.820312,2.72460938 L134.822266,2.72460938 L134.822266,3.80859375 C134.904297,3.5976552 135.105467,3.34082183 135.425781,3.03808594 C135.746095,2.73535005 136.115232,2.58398438 136.533203,2.58398438 C136.552734,2.58398438 136.585937,2.58593748 136.632812,2.58984375 C136.679688,2.59375002 136.759765,2.60156244 136.873047,2.61328125 L136.873047,3.7265625 C136.810547,3.71484369 136.75293,3.70703127 136.700195,3.703125 C136.647461,3.69921873 136.589844,3.69726562 136.527344,3.69726562 C135.996091,3.69726562 135.587892,3.86816235 135.302734,4.20996094 C135.017577,4.55175952 134.875,4.94531027 134.875,5.390625 L134.875,9 L133.820312,9 L133.820312,2.72460938 Z M137.787109,2.75390625 L138.859375,2.75390625 L138.859375,9 L137.787109,9 L137.787109,2.75390625 Z M137.787109,0.392578125 L138.859375,0.392578125 L138.859375,1.58789062 L137.787109,1.58789062 L137.787109,0.392578125 Z M141.080078,7.03125 C141.111328,7.38281426 141.199218,7.65234281 141.34375,7.83984375 C141.609376,8.1796892 142.070309,8.34960938 142.726562,8.34960938 C143.117189,8.34960938 143.460936,8.26464929 143.757812,8.09472656 C144.054689,7.92480384 144.203125,7.66211115 144.203125,7.30664062 C144.203125,7.03710803 144.083986,6.83203195 143.845703,6.69140625 C143.693359,6.60546832 143.39258,6.50585994 142.943359,6.39257812 L142.105469,6.18164062 C141.57031,6.04882746 141.175783,5.90039145 140.921875,5.73632812 C140.468748,5.45117045 140.242188,5.05664314 140.242188,4.55273438 C140.242188,3.95898141 140.456053,3.47851746 140.883789,3.11132812 C141.311526,2.74413879 141.886715,2.56054688 142.609375,2.56054688 C143.554692,2.56054688 144.236326,2.83788785 144.654297,3.39257812 C144.916017,3.74414238 145.042969,4.12304484 145.035156,4.52929688 L144.039062,4.52929688 C144.019531,4.29101443 143.935548,4.07421973 143.787109,3.87890625 C143.544921,3.60156111 143.125003,3.46289062 142.527344,3.46289062 C142.128904,3.46289062 141.827149,3.53906174 141.62207,3.69140625 C141.416991,3.84375076 141.314453,4.04492062 141.314453,4.29492188 C141.314453,4.56836074 141.449217,4.78710855 141.71875,4.95117188 C141.875001,5.04882861 142.105467,5.13476525 142.410156,5.20898438 L143.107422,5.37890625 C143.865238,5.56250092 144.373046,5.74023352 144.630859,5.91210938 C145.041018,6.18164197 145.246094,6.60546586 145.246094,7.18359375 C145.246094,7.74219029 145.034182,8.22460734 144.610352,8.63085938 C144.186521,9.03711141 143.54102,9.24023438 142.673828,9.24023438 C141.74023,9.24023438 141.079104,9.02832243 140.69043,8.60449219 C140.301756,8.18066194 140.09375,7.65625312 140.066406,7.03125 L141.080078,7.03125 Z M146.453125,2.75390625 L147.525391,2.75390625 L147.525391,9 L146.453125,9 L146.453125,2.75390625 Z M146.453125,0.392578125 L147.525391,0.392578125 L147.525391,1.58789062 L146.453125,1.58789062 L146.453125,0.392578125 Z M153.264648,3.05859375 C153.70801,3.40234547 153.974609,3.99413643 154.064453,4.83398438 L153.039062,4.83398438 C152.976562,4.44726369 152.833985,4.12597784 152.611328,3.87011719 C152.388671,3.61425653 152.031252,3.48632812 151.539062,3.48632812 C150.867184,3.48632812 150.38672,3.81444984 150.097656,4.47070312 C149.910155,4.8964865 149.816406,5.42187187 149.816406,6.046875 C149.816406,6.67578439 149.949217,7.20507598 150.214844,7.63476562 C150.48047,8.06445527 150.898435,8.27929688 151.46875,8.27929688 C151.906252,8.27929688 152.252928,8.14550915 152.508789,7.87792969 C152.76465,7.61035022 152.941406,7.24414295 153.039062,6.77929688 L154.064453,6.77929688 C153.947265,7.61133229 153.654299,8.21972464 153.185547,8.60449219 C152.716795,8.98925974 152.117191,9.18164062 151.386719,9.18164062 C150.566402,9.18164062 149.912112,8.88183894 149.423828,8.28222656 C148.935544,7.68261419 148.691406,6.93359824 148.691406,6.03515625 C148.691406,4.93358824 148.958982,4.07617494 149.494141,3.46289062 C150.0293,2.84960631 150.710933,2.54296875 151.539062,2.54296875 C152.246097,2.54296875 152.821287,2.71484203 153.264648,3.05859375 L153.264648,3.05859375 Z M159.047852,7.52636719 C159.307618,6.99706767 159.4375,6.40820637 159.4375,5.75976562 C159.4375,5.1738252 159.343751,4.69726746 159.15625,4.33007812 C158.859374,3.75195023 158.34766,3.46289062 157.621094,3.46289062 C156.976559,3.46289062 156.507814,3.70898191 156.214844,4.20117188 C155.921874,4.69336184 155.775391,5.2871059 155.775391,5.98242188 C155.775391,6.65039396 155.921874,7.20702902 156.214844,7.65234375 C156.507814,8.09765848 156.972653,8.3203125 157.609375,8.3203125 C158.308597,8.3203125 158.788085,8.05566671 159.047852,7.52636719 L159.047852,7.52636719 Z M159.701172,3.3515625 C160.259768,3.8906277 160.539062,4.68358852 160.539062,5.73046875 C160.539062,6.74219256 160.292971,7.5781217 159.800781,8.23828125 C159.308591,8.8984408 158.544927,9.22851562 157.509766,9.22851562 C156.64648,9.22851562 155.96094,8.93652636 155.453125,8.35253906 C154.94531,7.76855177 154.691406,6.98437992 154.691406,6 C154.691406,4.94530723 154.958982,4.10547187 155.494141,3.48046875 C156.0293,2.85546563 156.748042,2.54296875 157.650391,2.54296875 C158.458988,2.54296875 159.142575,2.8124973 159.701172,3.3515625 L159.701172,3.3515625 Z" id="Hoger-risico"></path>
            </g>
            <g id="tickmarks" transform="translate(1.000000, 3.000000)">
                <g id="Minor" transform="translate(7.187900, 7.000000)" stroke="#FFFFFF" stroke-width="0.5" fill="#000000">
                    <use id="mtick1" mask="url(#mask-2)" transform="translate(3.421982, 70.410040) rotate(-352.000000) translate(-3.421982, -70.410040) " xlink:href="#path-1"></use>
                    <use id="mtick2" mask="url(#mask-4)" transform="translate(6.421982, 58.410040) rotate(-344.000000) translate(-6.421982, -58.410040) " xlink:href="#path-3"></use>
                    <use id="mtick3" mask="url(#mask-6)" transform="translate(16.421982, 37.410040) rotate(-327.000000) translate(-16.421982, -37.410040) " xlink:href="#path-5"></use>
                    <use id="mtick4" mask="url(#mask-8)" transform="translate(24.421982, 28.410040) rotate(-319.000000) translate(-24.421982, -28.410040) " xlink:href="#path-7"></use>
                    <use id="mtick5" mask="url(#mask-10)" transform="translate(43.142572, 12.929196) rotate(-301.000000) translate(-43.142572, -12.929196) " xlink:href="#path-9"></use>
                    <use id="mtick6" mask="url(#mask-12)" transform="translate(54.371920, 7.605747) rotate(-290.000000) translate(-54.371920, -7.605747) " xlink:href="#path-11"></use>
                    <use id="mtick7" mask="url(#mask-14)" transform="translate(77.371920, 2.605747) rotate(-275.000000) translate(-77.371920, -2.605747) " xlink:href="#path-13"></use>
                    <use id="mtick8" mask="url(#mask-16)" transform="translate(90.371920, 2.605747) rotate(-265.000000) translate(-90.371920, -2.605747) " xlink:href="#path-15"></use>
                    <use id="mtick9" mask="url(#mask-18)" transform="translate(113.371920, 7.605747) rotate(-248.000000) translate(-113.371920, -7.605747) " xlink:href="#path-17"></use>
                    <use id="mtick10" mask="url(#mask-20)" transform="translate(124.371920, 12.540064) rotate(-240.000000) translate(-124.371920, -12.540064) " xlink:href="#path-19"></use>
                    <use id="mtick11" mask="url(#mask-22)" transform="translate(143.371920, 27.605747) scale(-1, 1) rotate(-316.000000) translate(-143.371920, -27.605747) " xlink:href="#path-21"></use>
                    <use id="mtick12" mask="url(#mask-24)" transform="translate(151.104092, 37.519760) scale(-1, 1) rotate(-326.000000) translate(-151.104092, -37.519760) " xlink:href="#path-23"></use>
                    <use id="mtick13" mask="url(#mask-26)" transform="translate(161.122138, 58.609761) scale(-1, 1) rotate(-343.000000) translate(-161.122138, -58.609761) " xlink:href="#path-25"></use>
                    <use id="mtick14" mask="url(#mask-28)" transform="translate(163.544094, 70.609761) scale(-1, 1) rotate(-352.000000) translate(-163.544094, -70.609761) " xlink:href="#path-27"></use>
                </g>
                <g id="Major" fill="#000000">
                    <rect id="tick1" x="0" y="88" width="13" height="2"></rect>
                    <rect id="tick2" transform="translate(14.374013, 53.460257) rotate(-337.000000) translate(-14.374013, -53.460257) " x="7.87401268" y="52.4602572" width="13" height="2"></rect>
                    <rect id="tick3" transform="translate(37.547399, 22.898065) rotate(-305.000000) translate(-37.547399, -22.898065) " x="31.0473989" y="21.8980647" width="13" height="2"></rect>
                    <rect id="tick4" transform="translate(72.221886, 7.571386) rotate(-281.000000) translate(-72.221886, -7.571386) " x="65.7218857" y="6.57138569" width="13" height="2"></rect>
                    <rect id="tick5" transform="translate(110.436552, 7.558356) rotate(-258.000000) translate(-110.436552, -7.558356) " x="103.936552" y="6.55835648" width="13" height="2"></rect>
                    <rect id="tick6" transform="translate(145.019093, 22.561671) rotate(-229.000000) translate(-145.019093, -22.561671) " x="138.519093" y="21.5616713" width="13" height="2"></rect>
                    <rect id="tick7" transform="translate(168.169838, 53.025882) rotate(-207.000000) translate(-168.169838, -53.025882) " x="161.669838" y="52.0258822" width="13" height="2"></rect>
                    <rect id="tick8" x="169.215847" y="88.1348757" width="13" height="2"></rect>
                </g>
                <path d="M12,11 C12,54.6304952 47.3695048,90 91,90 C134.630495,90 170,54.6304952 170,11" id="Oval-2" stroke="#000000" stroke-width="2" transform="translate(91.000000, 50.500000) scale(-1, -1) translate(-91.000000, -50.500000) "></path>
            </g>
            <g id="numbers" fill="#000000">
                <path d="M0.244140625,71.5634766 L0.244140625,70.6875 C1.06934006,70.607096 1.64485514,70.4727386 1.97070313,70.2844238 C2.29655111,70.0961091 2.5398755,69.6507197 2.70068359,68.9482422 L3.60205078,68.9482422 L3.60205078,78 L2.38330078,78 L2.38330078,71.5634766 L0.244140625,71.5634766 Z" id="1"></path>
                <path d="M18.8918457,37.9560547 C19.1732599,37.3762992 19.7223266,36.849449 20.5390625,36.3754883 L21.7578125,35.6708984 C22.3037137,35.353514 22.6866851,35.0826834 22.9067383,34.8583984 C23.2537452,34.5071597 23.4272461,34.1051455 23.4272461,33.6523438 C23.4272461,33.1233698 23.2685563,32.7033707 22.9511719,32.392334 C22.6337875,32.0812973 22.2106146,31.9257812 21.6816406,31.9257812 C20.8987591,31.9257812 20.3570979,32.2220022 20.0566406,32.8144531 C19.8958325,33.1318375 19.8069662,33.5719373 19.7900391,34.1347656 L18.628418,34.1347656 C18.6411133,33.3434205 18.787108,32.6980819 19.0664062,32.1987305 C19.5615259,31.3185177 20.4353779,30.878418 21.6879883,30.878418 C22.7290091,30.878418 23.4896623,31.1598279 23.9699707,31.7226562 C24.4502791,32.2854846 24.6904297,32.9117804 24.6904297,33.6015625 C24.6904297,34.3294307 24.4344101,34.9514948 23.9223633,35.4677734 C23.6261378,35.7682307 23.0950559,36.1321593 22.3291016,36.5595703 L21.4594727,37.0419922 C21.044757,37.270509 20.7189139,37.488443 20.4819336,37.6958008 C20.0587544,38.0639667 19.7921555,38.4723285 19.6821289,38.9208984 L24.6459961,38.9208984 L24.6459961,40 L18.40625,40 C18.4485679,39.2171185 18.6104315,38.5358102 18.8918457,37.9560547 L18.8918457,37.9560547 Z" id="2"></path>
                <path d="M51.0378418,16.3620605 C50.5533016,15.7717256 50.3110352,15.0533896 50.3110352,14.2070312 L51.5043945,14.2070312 C51.555176,14.7952503 51.665201,15.2226549 51.8344727,15.4892578 C52.1306981,15.9674503 52.6660118,16.206543 53.4404297,16.206543 C54.0413442,16.206543 54.5237612,16.0457373 54.8876953,15.7241211 C55.2516294,15.4025049 55.4335938,14.9877955 55.4335938,14.4799805 C55.4335938,13.8536753 55.242108,13.4156914 54.8591309,13.1660156 C54.4761537,12.9163399 53.9440138,12.7915039 53.2626953,12.7915039 C53.1865231,12.7915039 53.109294,12.7925618 53.0310059,12.7946777 C52.9527177,12.7967936 52.8733728,12.7999674 52.7929688,12.8041992 L52.7929688,11.7949219 C52.9114589,11.8076173 53.0109045,11.8160807 53.0913086,11.8203125 C53.1717126,11.8245443 53.2584631,11.8266602 53.3515625,11.8266602 C53.7789735,11.8266602 54.130207,11.7589525 54.4052734,11.6235352 C54.8876977,11.3865548 55.1289062,10.963382 55.1289062,10.3540039 C55.1289062,9.90120216 54.9681006,9.55208456 54.6464844,9.30664062 C54.3248682,9.06119669 53.9503602,8.93847656 53.5229492,8.93847656 C52.7612267,8.93847656 52.2343765,9.19238027 51.9423828,9.70019531 C51.7815747,9.97949358 51.6905926,10.3772761 51.6694336,10.8935547 L50.5395508,10.8935547 C50.5395508,10.216468 50.6749661,9.64095289 50.9458008,9.16699219 C51.4112979,8.32063379 52.2301374,7.89746094 53.4023438,7.89746094 C54.3291062,7.89746094 55.0463842,8.1037577 55.5541992,8.51635742 C56.0620143,8.92895714 56.315918,9.52668879 56.315918,10.3095703 C56.315918,10.8681669 56.1656916,11.3209618 55.8652344,11.6679688 C55.6790355,11.8837901 55.437827,12.0530593 55.1416016,12.1757812 C55.6197941,12.3069668 55.9932441,12.5598126 56.2619629,12.9343262 C56.5306817,13.3088398 56.6650391,13.7669244 56.6650391,14.3085938 C56.6650391,15.1761111 56.3793974,15.8828098 55.8081055,16.4287109 C55.2368135,16.9746121 54.4264375,17.2475586 53.3769531,17.2475586 C52.302078,17.2475586 51.522382,16.9523955 51.0378418,16.3620605 L51.0378418,16.3620605 Z" id="3"></path>
                <path d="M92.2973633,6.78173828 L92.2973633,2.66210938 L89.3837891,6.78173828 L92.2973633,6.78173828 Z M92.3164062,10 L92.3164062,7.77832031 L88.3300781,7.77832031 L88.3300781,6.66113281 L92.4941406,0.884765625 L93.4589844,0.884765625 L93.4589844,6.78173828 L94.7983398,6.78173828 L94.7983398,7.77832031 L93.4589844,7.77832031 L93.4589844,10 L92.3164062,10 Z" id="4"></path>
                <path d="M128.605957,14.6831055 C128.682129,15.3348014 128.984698,15.7854805 129.513672,16.0351562 C129.784507,16.16211 130.097654,16.2255859 130.453125,16.2255859 C131.130212,16.2255859 131.631672,16.0097678 131.95752,15.578125 C132.283368,15.1464822 132.446289,14.6682969 132.446289,14.1435547 C132.446289,13.5087859 132.252687,13.0179054 131.865479,12.6708984 C131.47827,12.3238915 131.013837,12.1503906 130.472168,12.1503906 C130.078611,12.1503906 129.741131,12.2265617 129.459717,12.3789062 C129.178303,12.5312508 128.938152,12.7428372 128.739258,13.0136719 L127.749023,12.956543 L128.440918,8.0625 L133.163574,8.0625 L133.163574,9.16699219 L129.297852,9.16699219 L128.910645,11.6933594 C129.122234,11.5325513 129.323241,11.411947 129.513672,11.331543 C129.852215,11.1918938 130.24365,11.1220703 130.687988,11.1220703 C131.521651,11.1220703 132.22835,11.3907851 132.808105,11.9282227 C133.387861,12.4656602 133.677734,13.1469685 133.677734,13.972168 C133.677734,14.8312217 133.412193,15.5887011 132.881104,16.2446289 C132.350014,16.9005567 131.50261,17.2285156 130.338867,17.2285156 C129.598304,17.2285156 128.943444,17.020103 128.374268,16.6032715 C127.805092,16.18644 127.486654,15.546391 127.418945,14.6831055 L128.605957,14.6831055 Z" id="5"></path>
                <path d="M164.925537,31.6623535 C165.325441,32.1892116 165.525391,32.7319308 165.525391,33.2905273 L164.395508,33.2905273 C164.327799,32.930825 164.21989,32.6494151 164.071777,32.4462891 C163.796711,32.0654278 163.379886,31.875 162.821289,31.875 C162.182288,31.875 161.674481,32.1701631 161.297852,32.760498 C160.921222,33.350833 160.711752,34.1961208 160.669434,35.2963867 C160.931805,34.9112936 161.26188,34.6235361 161.659668,34.4331055 C162.023602,34.2638338 162.429848,34.1791992 162.878418,34.1791992 C163.640141,34.1791992 164.304522,34.4225236 164.871582,34.9091797 C165.438642,35.3958358 165.722168,36.1215772 165.722168,37.0864258 C165.722168,37.9116252 165.453453,38.6426563 164.916016,39.279541 C164.378578,39.9164257 163.612635,40.2348633 162.618164,40.2348633 C161.767574,40.2348633 161.033369,39.912194 160.415527,39.2668457 C159.797686,38.6214974 159.48877,37.5350011 159.48877,36.0073242 C159.48877,34.8774358 159.626301,33.9189492 159.901367,33.1318359 C160.430341,31.625318 161.397291,30.8720703 162.802246,30.8720703 C163.817876,30.8720703 164.525633,31.1354954 164.925537,31.6623535 L164.925537,31.6623535 Z M164.068604,38.6130371 C164.366945,38.208901 164.516113,37.7317736 164.516113,37.1816406 C164.516113,36.7161435 164.382814,36.2728699 164.116211,35.8518066 C163.849608,35.4307433 163.365075,35.2202148 162.662598,35.2202148 C162.17171,35.2202148 161.741131,35.3831364 161.37085,35.7089844 C161.000568,36.0348324 160.81543,36.5257129 160.81543,37.1816406 C160.81543,37.7571643 160.983641,38.2406393 161.320068,38.6320801 C161.656496,39.0235208 162.123044,39.2192383 162.719727,39.2192383 C163.320641,39.2192383 163.770262,39.0171732 164.068604,38.6130371 L164.068604,38.6130371 Z" id="6"></path>
                <path d="M184.79834,69.0625 L184.79834,70.059082 C184.506346,70.3426121 184.118085,70.8356085 183.633545,71.5380859 C183.149005,72.2405634 182.720542,72.9980428 182.348145,73.8105469 C181.979979,74.601892 181.700685,75.3234017 181.510254,75.9750977 C181.387532,76.3940451 181.228842,77.0690058 181.03418,78 L179.770996,78 C180.058758,76.2649653 180.693517,74.53842 181.675293,72.8203125 C182.255048,71.813146 182.864417,70.9435258 183.503418,70.2114258 L178.476074,70.2114258 L178.476074,69.0625 L184.79834,69.0625 Z" id="7"></path>
            </g>
        </g>
    </g>
</svg>