<?xml version="1.0" encoding="UTF-8"?>
<svg width="46px" height="47px" viewBox="0 0 46 47" version="1.1" xmlns="http://www.w3.org/2000/svg" xmlns:xlink="http://www.w3.org/1999/xlink">
    <!-- Generator: Sketch 41.2 (35397) - http://www.bohemiancoding.com/sketch -->
    <title>Fill 2</title>
    <desc>Created with Sketch.</desc>
    <defs></defs>
    <g id="Page-1" stroke="none" stroke-width="1" fill="none" fill-rule="evenodd">
        <g id="NN_Nat-Ned_v1.2_logo_04_black" transform="translate(-2.000000, 0.000000)" fill="#EA650D">
            <path d="M2.574,26.998 C2.574,18.546 8.385,15.786 14.499,15.786 L33.813,15.786 L30.855,30.527 L23.396,19.266 C23.188,18.939 22.698,18.674 22.31,18.674 L16.218,18.674 C15.829,18.674 15.446,18.986 15.368,19.365 L12.128,35.309 C12.054,35.689 12.308,36.002 12.695,36.002 L17.167,36.002 C17.556,36.002 17.938,35.689 18.017,35.31 L20.28,24.142 L27.733,35.391 C27.941,35.719 28.434,35.984 28.821,35.984 L34.919,35.984 C35.305,35.984 35.687,35.674 35.769,35.292 L39.272,18.162 C39.349,17.781 39.238,17.203 39.028,16.875 L35.305,11.07 C35.097,10.744 34.604,10.475 34.216,10.475 L7.046,10.475 C6.036,10.475 6.154,10.057 6.974,9.08 C11.133,4.12 17.375,0.969 24.354,0.969 C36.879,0.969 47.031,11.122 47.031,23.646 C47.031,36.17 36.879,46.323 24.354,46.323 C11.332,46.323 2.574,35.591 2.574,26.998" id="Fill-2"></path>
        </g>
    </g>
</svg>