<?xml version="1.0" encoding="utf-8"?>
<!-- Generator: Adobe Illustrator 18.1.1, SVG Export Plug-In . SVG Version: 6.00 Build 0)  -->
<svg version="1.1" id="Layer_1" xmlns="http://www.w3.org/2000/svg" xmlns:xlink="http://www.w3.org/1999/xlink" x="0px" y="0px"
	 viewBox="0 -7.5 196 60" enable-background="new 0 -7.5 196 60" xml:space="preserve" width="196" height="60">
<circle fill="#FFFFFF" cx="29.5" cy="22.5" r="29.5"/>
<linearGradient id="SVGID_1_" gradientUnits="userSpaceOnUse" x1="42.8433" y1="16.7244" x2="22.5175" y2="24.1224">
	<stop  offset="0.3374" style="stop-color:#F4AA1C"/>
	<stop  offset="0.8466" style="stop-color:#ED8722"/>
</linearGradient>
<path fill="url(#SVGID_1_)" d="M26.9,16.3c0.5,0,1.1,0.3,1.4,0.7l9.4,14.1l3.7-18.5H19.7v3.6H26.9z"/>
<linearGradient id="SVGID_2_" gradientUnits="userSpaceOnUse" x1="38.7624" y1="48.9281" x2="38.7624" y2="7.9003">
	<stop  offset="6.100000e-03" style="stop-color:#EC7E23"/>
	<stop  offset="0.2515" style="stop-color:#F09220"/>
	<stop  offset="0.7791" style="stop-color:#F09220"/>
	<stop  offset="0.9939" style="stop-color:#F19C1F"/>
</linearGradient>
<path fill="url(#SVGID_2_)" d="M53.9,7.9c2.1,5.9,1.2,12.5-2.3,16.9c-1.4,1.7-3.6,3.4-6.2,4.7l-1.6,7.6c-0.1,0.5-0.6,0.9-1.1,0.9
	h-7.6c-0.5,0-1.1-0.3-1.4-0.7l-9.3-14.1l-0.7,3.3l-2.2,10.7C21.5,37.6,21,38,20.5,38h-0.9c0,6.5,8.6,13.8,22.9,9.8
	c9.2-4.7,15.5-14.3,15.5-25.3C57.9,17.2,56.5,12.2,53.9,7.9z"/>
<linearGradient id="SVGID_3_" gradientUnits="userSpaceOnUse" x1="10.314" y1="43.7618" x2="31.1602" y2="26.2698">
	<stop  offset="0.2147" style="stop-color:#E66124"/>
	<stop  offset="0.5399" style="stop-color:#E86C24"/>
	<stop  offset="0.816" style="stop-color:#ED8722"/>
</linearGradient>
<path fill="url(#SVGID_3_)" d="M2.2,26.7c0-10.6,7.3-14.1,15-14.1h2.6v3.6h-0.4c-0.5,0-1,0.4-1.1,0.9L18,18.2h0l-3.8,18.9
	c-0.1,0.5,0.2,0.9,0.7,0.9h4.7c0,6.5,8.6,13.8,22.9,9.8c-3.9,2-8.3,3.1-13,3.1C13.2,50.9,2.2,37.5,2.2,26.7z"/>
<linearGradient id="SVGID_4_" gradientUnits="userSpaceOnUse" x1="31.2212" y1="18.1899" x2="46.1621" y2="-0.573">
	<stop  offset="0.5153" style="stop-color:#F4AA1C"/>
	<stop  offset="0.8589" style="stop-color:#FCC90A"/>
</linearGradient>
<path fill="url(#SVGID_4_)" d="M45.4,29.5c2.6-1.2,4.8-2.9,6.2-4.7c3.6-4.4,4.4-11,2.3-16.9C49.7,1,42.7-4.1,34.4-5.5
	c-5.6-0.4-10.9,1.1-13.7,4.8c-1.3,1.7-1.5,4-0.9,6.7h22.1c0.5,0,1.1,0.3,1.4,0.7l4.7,7.3c0.3,0.4,0.4,1.1,0.3,1.6L45.4,29.5z"/>
<linearGradient id="SVGID_5_" gradientUnits="userSpaceOnUse" x1="20.6488" y1="5.9858" x2="20.6488" y2="-5.9317">
	<stop  offset="6.100000e-03" style="stop-color:#EC7E23"/>
	<stop  offset="0.2515" style="stop-color:#F09220"/>
	<stop  offset="0.7791" style="stop-color:#F09220"/>
	<stop  offset="0.9939" style="stop-color:#F19C1F"/>
</linearGradient>
<path fill="url(#SVGID_5_)" d="M34.4-5.5c-5.6-0.4-10.9,1.1-13.7,4.8c-1.3,1.7-1.5,4-0.9,6.7h-12C6.5,6,6.7,5.5,7.7,4.2
	C12.9-2,20.7-5.9,29.5-5.9C31.2-5.9,32.8-5.8,34.4-5.5z"/>
<g>
	<linearGradient id="SVGID_6_" gradientUnits="userSpaceOnUse" x1="14.1685" y1="37.9933" x2="14.1685" y2="18.1863">
		<stop  offset="0.3067" style="stop-color:#E76524"/>
		<stop  offset="0.6258" style="stop-color:#DF541A"/>
	</linearGradient>
	<path fill="url(#SVGID_6_)" d="M14.2,37.1L18,18.2h-2.8c-0.5,0-1,0.4-1.1,0.9l-3.8,18c-0.1,0.5,0.2,0.9,0.7,0.9h3.8
		C14.4,38,14.1,37.6,14.2,37.1z"/>
</g>
<linearGradient id="SVGID_7_" gradientUnits="userSpaceOnUse" x1="29.4066" y1="37.9703" x2="29.4066" y2="23.1228">
	<stop  offset="0" style="stop-color:#F19C1F"/>
	<stop  offset="0.2945" style="stop-color:#E8721B"/>
</linearGradient>
<path fill="url(#SVGID_7_)" d="M32.1,38h3c-0.5,0-1.1-0.3-1.4-0.7l-9.3-14.1l-0.7,3.3l6.9,10.7C30.9,37.6,31.6,38,32.1,38z"/>
<g>
	<path d="M107.2,12.2c0-3.3,2-5.9,5.4-5.9c3.4,0,5.4,2.6,5.4,5.9c0,3.5-2.2,5.9-5.4,5.9C109.3,18.1,107.2,15.6,107.2,12.2z
		 M115.3,12.2c0-2.2-1.1-3.7-2.8-3.7c-1.7,0-2.7,1.6-2.7,3.7c0,2,0.9,3.8,2.8,3.8C114.2,15.9,115.3,14.4,115.3,12.2z"/>
	<path d="M70.3,17.8c-0.2,0-0.3-0.1-0.3-0.3V6.9c0-0.2,0.1-0.3,0.3-0.3h1.6c0.2,0,0.3,0.2,0.3,0.3L72.4,8c0.7-0.9,2-1.7,3.4-1.7
		c2.1,0,3.8,1.3,3.8,4.4v6.9c0,0.2-0.1,0.3-0.3,0.3h-1.9c-0.2,0-0.3-0.1-0.3-0.3V11c0-1.8-1-2.4-2-2.4c-1.3,0-2.5,1.1-2.5,3.3v5.6
		c0,0.2-0.1,0.3-0.3,0.3H70.3z"/>
	<path d="M70.3,38.5c-0.2,0-0.3-0.1-0.3-0.3V27.5c0-0.2,0.1-0.3,0.3-0.3h1.6c0.2,0,0.3,0.2,0.3,0.3l0.1,1.1c0.7-0.9,2-1.7,3.4-1.7
		c2.1,0,3.8,1.3,3.8,4.4v6.9c0,0.2-0.1,0.3-0.3,0.3h-1.9c-0.2,0-0.3-0.1-0.3-0.3v-6.5c0-1.9-1-2.4-2-2.4c-1.3,0-2.5,1.1-2.5,3.3v5.6
		c0,0.2-0.1,0.3-0.3,0.3H70.3z"/>
	<path d="M120.4,17.8c-0.2,0-0.3-0.1-0.3-0.3V6.9c0-0.2,0.1-0.3,0.3-0.3h1.6c0.2,0,0.3,0.2,0.3,0.3l0.1,1.1c0.7-0.9,2-1.7,3.4-1.7
		c2.1,0,3.8,1.3,3.8,4.4v6.9c0,0.2-0.1,0.3-0.3,0.3h-1.9c-0.2,0-0.3-0.1-0.3-0.3V11c0-1.8-1-2.4-2-2.4c-1.3,0-2.5,1.1-2.5,3.3v5.6
		c0,0.2-0.1,0.3-0.3,0.3H120.4z"/>
	<path d="M86.9,8.4c1.2,0,2.4,0.9,2.4,3.4v0.5c0,2.9-1.4,3.6-2.3,3.6c-1.7,0-2.6-1.8-2.6-3.8C84.3,9.9,85.4,8.4,86.9,8.4z M86.4,6.3
		c-2.4,0-4.7,2-4.7,5.9c0,3.2,1.7,5.9,4.7,5.9c1.3,0,2.5-0.8,3-1.7l0.2,1.1c0,0.2,0.2,0.3,0.3,0.3h1.6c0.2,0,0.3-0.1,0.3-0.3V6.9
		c0-0.2-0.1-0.3-0.3-0.3H90c-0.2,0-0.3,0.2-0.3,0.3l-0.1,1C88.8,7,87.8,6.3,86.4,6.3z"/>
	<path d="M137,29.1c1.2,0,2.4,0.9,2.4,3.3V33c0,2.9-1.4,3.6-2.3,3.6c-1.7,0-2.6-1.8-2.6-3.8C134.4,30.6,135.5,29.1,137,29.1z
		 M136.5,26.9c-2.4,0-4.7,2-4.7,5.9c0,3.3,1.7,5.9,4.7,5.9c1.3,0,2.5-0.8,3-1.7l0.2,1.1c0,0.2,0.2,0.3,0.3,0.3h1.6
		c0.2,0,0.3-0.1,0.3-0.3V27.5c0-0.2-0.1-0.3-0.3-0.3h-1.4c-0.2,0-0.3,0.2-0.3,0.3l-0.1,1C138.9,27.6,137.9,26.9,136.5,26.9z"/>
	<path d="M136.9,8.4c1.1,0,2.4,0.9,2.4,3.4v0.5c0,2.9-1.4,3.6-2.3,3.6c-1.7,0-2.6-1.8-2.6-3.8C134.3,9.9,135.4,8.4,136.9,8.4z
		 M136.5,6.3c-2.4,0-4.7,2-4.7,5.9c0,3.2,1.7,5.9,4.7,5.9c1.3,0,2.5-0.8,3-1.7l0.2,1.1c0,0.2,0.2,0.3,0.3,0.3h1.6
		c0.2,0,0.3-0.1,0.3-0.3V6.9c0-0.2-0.1-0.3-0.3-0.3h-1.5c-0.2,0-0.3,0.2-0.3,0.3l-0.1,1C138.9,7,137.9,6.3,136.5,6.3z"/>
	<path d="M104.6,6.6c0.2,0,0.3,0.1,0.3,0.3v10.6c0,0.2-0.1,0.3-0.3,0.3h-1.9c-0.2,0-0.3-0.1-0.3-0.3V7.1c0-0.2,0.1-0.3,0.3-0.3
		L104.6,6.6z"/>
	<path d="M146.8,1.9c0.2,0,0.3,0.1,0.3,0.3v15.3c0,0.2-0.1,0.3-0.3,0.3h-1.9c-0.2,0-0.3-0.1-0.3-0.3V2.4c0-0.2,0.1-0.3,0.3-0.3
		L146.8,1.9z"/>
	<circle cx="103.7" cy="3.6" r="1.5"/>
	<path d="M99.9,16c0-0.2-0.2-0.3-0.5-0.2c-0.2,0.1-0.7,0.2-1.1,0.2c-0.7,0-1.1-0.3-1.1-1.3V8.6h2.4c0.2,0,0.3-0.1,0.3-0.3V6.9
		c0-0.2-0.1-0.3-0.3-0.3h-2.4v-3c0-0.2-0.1-0.4-0.3-0.3L95,3.4c-0.2,0-0.3,0.2-0.3,0.3v11.2c0,1.8,0.8,3.2,3.1,3.2
		c0.7,0,1.5-0.1,2.1-0.4c0.1-0.1,0.2-0.1,0.2-0.3L99.9,16z"/>
	<path d="M152,11.2c0.2-1.3,0.8-2.9,2.5-2.9c1.8,0,2.4,1.4,2.5,2.9H152z M154.7,18.1c1.6,0,2.9-0.4,3.9-1c0.2-0.1,0.2-0.3,0.2-0.4
		l-0.5-1.3c-0.1-0.2-0.3-0.2-0.4-0.2c-0.9,0.4-1.9,0.7-3,0.7c-1.9,0-2.7-1.3-2.9-2.9h7.3c0.2,0,0.3-0.1,0.3-0.3c0-0.3,0-0.4,0-0.7
		c0-2.8-1.4-5.8-5-5.8c-3.3,0-5.2,2.5-5.2,6C149.3,15.8,151.4,18.1,154.7,18.1z"/>
	<path d="M181.8,38.5c-0.2,0-0.3-0.1-0.3-0.3V27.5c0-0.2,0.1-0.3,0.3-0.3h1.6c0.2,0,0.3,0.2,0.3,0.3l0.1,1.1c0.7-0.9,2-1.7,3.4-1.7
		c2.1,0,3.8,1.3,3.8,4.4v6.9c0,0.2-0.1,0.3-0.3,0.3h-1.9c-0.2,0-0.3-0.1-0.3-0.3v-6.5c0-1.9-1-2.4-2-2.4c-1.3,0-2.5,1.1-2.5,3.3v5.6
		c0,0.2-0.1,0.3-0.3,0.3H181.8z"/>
	<path d="M145.1,38.5c-0.2,0-0.3-0.1-0.3-0.3V27.5c0-0.2,0.1-0.3,0.3-0.3h1.6c0.2,0,0.3,0.2,0.3,0.3l0.1,1.1c0.7-0.9,2-1.7,3.4-1.7
		c2.1,0,3.8,1.3,3.8,4.4v6.9c0,0.2-0.1,0.3-0.3,0.3h-1.9c-0.2,0-0.3-0.1-0.3-0.3v-6.5c0-1.9-1-2.4-2-2.4c-1.3,0-2.5,1.1-2.5,3.3v5.6
		c0,0.2-0.1,0.3-0.3,0.3H145.1z"/>
	<path d="M129.3,22.5c0.2,0,0.3,0.1,0.3,0.3v15.3c0,0.2-0.1,0.3-0.3,0.3h-1.9c-0.2,0-0.3-0.1-0.3-0.3V23c0-0.2,0.1-0.3,0.3-0.3
		L129.3,22.5z"/>
	<path d="M84.4,31.9c0.2-1.3,0.8-2.9,2.5-2.9c1.8,0,2.4,1.4,2.5,2.9H84.4z M87.1,38.7c1.6,0,2.9-0.4,3.9-1c0.2-0.1,0.2-0.3,0.2-0.4
		l-0.5-1.3c-0.1-0.2-0.3-0.2-0.4-0.2c-0.9,0.4-1.9,0.7-3,0.7c-1.9,0-2.7-1.3-2.9-2.9h7.3c0.2,0,0.3-0.1,0.3-0.3c0-0.3,0-0.4,0-0.7
		c0-2.8-1.4-5.8-5-5.8c-3.3,0-5.2,2.5-5.2,6C81.7,36.4,83.8,38.7,87.1,38.7z"/>
	<path d="M109.1,31.9c0.2-1.3,0.8-2.9,2.5-2.9c1.8,0,2.4,1.4,2.5,2.9H109.1z M111.9,38.7c1.6,0,2.9-0.4,3.9-1
		c0.2-0.1,0.2-0.3,0.2-0.4l-0.5-1.3c-0.1-0.2-0.3-0.2-0.4-0.2c-0.9,0.4-1.9,0.7-3,0.7c-1.9,0-2.7-1.3-2.9-2.9h7.3
		c0.2,0,0.3-0.1,0.3-0.3c0-0.3,0-0.4,0-0.7c0-2.8-1.4-5.8-5-5.8c-3.3,0-5.2,2.5-5.2,6C106.5,36.4,108.6,38.7,111.9,38.7z"/>
	<path d="M103.8,22.5l-1.9,0.2c-0.2,0-0.3,0.2-0.3,0.3v5.2c-0.7-0.7-1.8-1.3-3.1-1.3c-2.4,0-4.7,2-4.7,5.9c0,3.3,1.7,5.9,4.7,5.9
		c1.3,0,2.7-0.8,3.3-1.7l0.2,1.1c0,0.2,0.2,0.3,0.3,0.3h1.5c0.2,0,0.3-0.1,0.3-0.3V22.8C104.1,22.7,104,22.5,103.8,22.5z M101.6,33
		c0,2.9-1.6,3.6-2.6,3.6c-1.7,0-2.6-1.8-2.6-3.8c0-2.2,1.1-3.7,2.6-3.7c1.1,0,2.6,0.9,2.6,3.3V33z"/>
	<path d="M171.7,31.9c0.2-1.3,0.8-2.9,2.5-2.9c1.8,0,2.4,1.4,2.5,2.9H171.7z M174.5,38.7c1.6,0,2.9-0.4,3.9-1
		c0.2-0.1,0.2-0.3,0.2-0.4l-0.5-1.3c-0.1-0.2-0.3-0.2-0.4-0.2c-0.9,0.4-1.9,0.7-3,0.7c-1.9,0-2.7-1.3-2.9-2.9h7.3
		c0.2,0,0.3-0.1,0.3-0.3c0-0.3,0-0.4,0-0.7c0-2.8-1.4-5.8-5-5.8c-3.3,0-5.2,2.5-5.2,6C169.1,36.4,171.2,38.7,174.5,38.7z"/>
	<path d="M166.6,22.5l-1.9,0.2c-0.2,0-0.3,0.2-0.3,0.3v5.2c-0.7-0.7-1.8-1.3-3.1-1.3c-2.4,0-4.7,2-4.7,5.9c0,3.3,1.7,5.9,4.7,5.9
		c1.3,0,2.7-0.8,3.2-1.7l0.2,1.1c0,0.2,0.2,0.3,0.3,0.3h1.5c0.2,0,0.3-0.1,0.3-0.3V22.8C166.9,22.7,166.7,22.5,166.6,22.5z
		 M164.4,33c0,2.9-1.6,3.6-2.6,3.6c-1.7,0-2.6-1.8-2.6-3.8c0-2.2,1.1-3.7,2.6-3.7c1.1,0,2.6,0.9,2.6,3.3V33z"/>
	<path d="M125.1,27.3c0-0.2-0.1-0.3-0.3-0.3c-1.4,0-2.7,0.8-3.5,1.7l-0.1-1.1c0-0.2-0.2-0.3-0.3-0.3h-1.6c-0.2,0-0.3,0.1-0.3,0.3
		v10.6c0,0.2,0.1,0.3,0.3,0.3h1.9c0.2,0,0.3-0.1,0.3-0.3v-5.5c0-2.3,1.4-3.2,2.7-3.2c0.2,0,0.4,0,0.5,0.1c0.3,0,0.4-0.1,0.4-0.3
		V27.3z"/>
</g>
</svg>
