<?xml version="1.0" encoding="utf-8"?>
<!-- Generator: Adobe Illustrator 18.1.1, SVG Export Plug-In . SVG Version: 6.00 Build 0)  -->
<svg version="1.1" baseProfile="tiny" id="Laag_1" xmlns="http://www.w3.org/2000/svg" xmlns:xlink="http://www.w3.org/1999/xlink"
	 x="0px" y="0px" viewBox="0 0 36.4 38.4" xml:space="preserve">
<path fill="#EA6611" d="M12.6,24.9H9.8c-0.5,0-0.8-0.4-0.8-0.8v-2.8c0-0.5,0.4-0.8,0.8-0.8h2.8c0.5,0,0.8,0.4,0.8,0.8v2.8
	C13.4,24.5,13.1,24.9,12.6,24.9z"/>
<path fill="#EA6611" d="M19.6,24.9h-2.8c-0.5,0-0.8-0.4-0.8-0.8v-2.8c0-0.5,0.4-0.8,0.8-0.8h2.8c0.5,0,0.8,0.4,0.8,0.8v2.8
	C20.5,24.5,20.1,24.9,19.6,24.9z"/>
<path fill="#EA6611" d="M26.7,24.9h-2.8c-0.5,0-0.8-0.4-0.8-0.8v-2.8c0-0.5,0.4-0.8,0.8-0.8h2.8c0.5,0,0.8,0.4,0.8,0.8v2.8
	C27.5,24.5,27.1,24.9,26.7,24.9z"/>
<path fill="#EA6611" d="M12.6,32.1H9.8c-0.5,0-0.8-0.4-0.8-0.8v-2.8c0-0.5,0.4-0.8,0.8-0.8h2.8c0.5,0,0.8,0.4,0.8,0.8v2.8
	C13.4,31.8,13.1,32.1,12.6,32.1z"/>
<path fill="#EA6611" d="M19.6,32.1h-2.8c-0.5,0-0.8-0.4-0.8-0.8v-2.8c0-0.5,0.4-0.8,0.8-0.8h2.8c0.5,0,0.8,0.4,0.8,0.8v2.8
	C20.5,31.8,20.1,32.1,19.6,32.1z"/>
<path fill="#EA6611" d="M26.7,32.1h-2.8c-0.5,0-0.8-0.4-0.8-0.8v-2.8c0-0.5,0.4-0.8,0.8-0.8h2.8c0.5,0,0.8,0.4,0.8,0.8v2.8
	C27.5,31.8,27.1,32.1,26.7,32.1z"/>
<path fill="#EA6611" d="M33.2,4.7v3.7c0,2.2-1.8,4-4,4h-1.7c-2.2,0-4-1.8-4-4V4.5H12.7v3.9c0,2.2-1.8,4-4,4H7.1c-2.2,0-4-1.8-4-4
	V4.7C1.3,5.3,0,7,0,9v24.8c0,2.5,2,4.5,4.5,4.5h27.4c2.5,0,4.5-2,4.5-4.5V9C36.4,7,35.1,5.2,33.2,4.7z M32.2,32.3
	c0,1.3-1,2.3-2.3,2.3H6.6c-1.3,0-2.3-1-2.3-2.3V19.9c0-1.3,1-2.3,2.3-2.3h23.3c1.3,0,2.3,1,2.3,2.3V32.3z"/>
<path fill="#EA6611" d="M8.4,10.3h-1c-1.1,0-2-0.9-2-2l0-6.4c0-1.1,0.9-2,2-2l1,0c1.1,0,2,0.9,2,2v6.4C10.4,9.5,9.5,10.3,8.4,10.3z"
	/>
<path fill="#EA6611" d="M28.9,10.3h-1c-1.1,0-2-0.9-2-2V2c0-1.1,0.9-2,2-2l1,0c1.1,0,2,0.9,2,2v6.4C30.8,9.5,30,10.3,28.9,10.3z"/>
</svg>
