<?xml version="1.0" encoding="UTF-8" standalone="no"?>
<!-- Created with Inkscape (http://www.inkscape.org/) -->

<svg
   xmlns:dc="http://purl.org/dc/elements/1.1/"
   xmlns:cc="http://creativecommons.org/ns#"
   xmlns:rdf="http://www.w3.org/1999/02/22-rdf-syntax-ns#"
   xmlns:svg="http://www.w3.org/2000/svg"
   xmlns="http://www.w3.org/2000/svg"
   version="1.1"
   width="31"
   height="37"
   id="svg2">
  <defs
     id="defs4" />
  <metadata
     id="metadata7">
    <rdf:RDF>
      <cc:Work
         rdf:about="">
        <dc:format>image/svg+xml</dc:format>
        <dc:type
           rdf:resource="http://purl.org/dc/dcmitype/StillImage" />
        <dc:title></dc:title>
      </cc:Work>
    </rdf:RDF>
  </metadata>
  <g
     transform="translate(-0.062086,-0.04567849)"
     id="layer4"
     style="display:inline">
    <path
       d="m 10.602506,4.8829356 c -2.8694725,0 -5.1850167,3.0165038 -5.1850167,6.7351764 0,3.718673 2.3155442,6.735175 5.1850167,6.735175 2.869472,0 5.185017,-3.016502 5.185017,-6.735175 0,-3.7186726 -2.315545,-6.7351764 -5.185017,-6.7351764 z m 6.574816,14.0314024 c -1.263973,0.03421 -2.399266,0.610656 -3.474497,0.988681 -2.059504,1.093878 -4.0052802,1.2923 -5.8264617,0.213814 -2.5541679,-0.846709 -4.554216,-2.158677 -7.1093529,0.07698 -2.0056843,1.363286 1.2626056,13.759432 1.8441555,14.67285 5.5421564,2.718017 10.8000911,2.692361 16.1697691,0.106046 0.778373,-0.894602 3.610345,-13.395947 1.603614,-14.779757 -1.17881,-0.991247 -2.224138,-1.310259 -3.207227,-1.28289 z"
       id="path3076"
       style="fill:#ffffff;fill-opacity:1;stroke:none" />
    <path
       d="m 27.864933,5.5375306 -5.168914,5.4150534 -3.240827,-3.6303833 -0.02052,9.3532733 9.332761,-0.03938 -3.466454,-3.651387 5.148403,-4.6969834 -2.584457,-2.7488783 z"
       id="path3078"
       style="fill:#ffffff;fill-opacity:1;stroke:none" />
  </g>
</svg>
