<?xml version="1.0" encoding="UTF-8" standalone="no"?>
<!-- Created with Inkscape (http://www.inkscape.org/) -->

<svg
   xmlns:dc="http://purl.org/dc/elements/1.1/"
   xmlns:cc="http://creativecommons.org/ns#"
   xmlns:rdf="http://www.w3.org/1999/02/22-rdf-syntax-ns#"
   xmlns:svg="http://www.w3.org/2000/svg"
   xmlns="http://www.w3.org/2000/svg"
   version="1.1"
   width="138"
   height="319.43799"
   id="svg2">
  <defs
     id="defs4" />
  <path
     d="M 29.015516,261.0005 C 12.992334,261.0005 0,274.08384 0,290.21925 0,306.35466 12.992334,319.438 29.015516,319.438 45.038699,319.438 58,306.35466 58,290.21925 c 0,-6.20224 -1.940464,-11.92618 -5.213483,-16.65625 -0.02097,0.0645 0.0265,0.12263 0,0.1875 -1.816505,0.88532 -3.559705,2.09651 -5.213483,3.53125 -1.653779,1.43474 -3.207734,3.09276 -4.685929,4.90625 -1.478194,1.81349 -2.868621,3.75967 -4.158373,5.78125 -1.289752,2.02158 -2.480299,4.12851 -3.568753,6.1875 -2.176909,4.11798 -3.949946,8.1314 -5.244516,11.375 -1.294571,3.2436 -2.111171,5.71489 -2.420546,6.71875 -0.550001,-2.11157 -1.306328,-4.42093 -2.172285,-6.75 -0.865956,-2.32907 -1.846177,-4.67597 -2.917068,-6.875 -1.07089,-2.19903 -2.217754,-4.24731 -3.382557,-5.96875 -1.164803,-1.72144 -2.358993,-3.13495 -3.506688,-4.03125 -0.188556,-0.54494 -0.102744,-1.15875 0.155163,-1.78125 0.257908,-0.6225 0.694774,-1.23479 1.210273,-1.8125 0.515499,-0.57772 1.122577,-1.12065 1.706795,-1.53125 0.584218,-0.4106 1.149634,-0.69134 1.613697,-0.8125 0.464063,-0.12116 1.149141,0.30402 1.955056,1.0625 0.805915,0.75848 1.717947,1.83581 2.606742,2.96875 1.777589,2.26589 3.478966,4.76727 4.034243,5.5 0.739321,-2.18086 1.87884,-4.39239 3.320492,-6.59375 1.441652,-2.20136 3.173008,-4.38557 5.089353,-6.40625 1.916344,-2.02068 4.012096,-3.89243 6.175495,-5.53125 2.074118,-1.57119 4.203343,-2.8984 6.299625,-3.9375 -5.263185,-5.38901 -12.568752,-8.75 -20.667737,-8.75 z"
     id="success_white"
     style="fill:#ffffff;fill-opacity:1;stroke:none" />
  <path
     d="M 29.01552,174 C 12.99233,174 0,187.08345 0,203.219 0,219.35455 12.99233,232.438 29.01552,232.438 45.0387,232.438 58,219.35455 58,203.219 58,187.08345 45.0387,174 29.01552,174 z m -0.12413,7.78132 c 1.80469,-0.0433 3.65611,0.13701 4.03424,0.65625 0.66184,0.90884 -0.80495,27.86121 -1.36544,28.31274 -0.6875,0.55386 -4.61908,0.63656 -5.30658,-0.125 -0.43873,-0.48599 -2.00424,-27.28772 -1.17924,-28.18774 0.24063,-0.34616 2.01232,-0.61298 3.81702,-0.65625 z m 0.031,32.78153 c 2.65787,0 4.81005,2.16727 4.81005,4.84379 0,2.67651 -2.15218,4.84379 -4.81005,4.84379 -2.65788,0 -4.81006,-2.16728 -4.81006,-4.84379 0,-2.67652 2.15218,-4.84379 4.81006,-4.84379 z"
     id="warning_white"
     style="fill:#ffffff;fill-opacity:1;stroke:none" />
  <path
     d="m 29,87.03175 c -16.01461,0 -29,13.05209 -29,29.1875 0,16.13541 12.98539,29.21875 29,29.21875 16.01461,0 29,-13.08334 29,-29.21875 0,-16.13541 -12.98539,-29.1875 -29,-29.1875 z m -0.37219,9.96875 c 2.18208,0 3.93903,1.7702 3.93903,3.96875 0,2.19855 -1.75695,3.96875 -3.93903,3.96875 -2.18209,0 -3.97006,-1.7702 -3.97006,-3.96875 0,-2.19855 1.78797,-3.96875 3.97006,-3.96875 z m -2.79145,10.9375 5.70696,0 0,26.71875 -5.70696,0 0,-26.71875 z"
     id="info_white"
     style="fill:#ffffff;fill-opacity:1;stroke:none;display:inline" />
  <path
     d="M 29.01552,0 C 12.99233,0 0,13.08345 0,29.219 0,45.35455 12.99233,58.438 29.01552,58.438 45.0387,58.438 58,45.35455 58,29.219 58,13.08345 45.0387,0 29.01552,0 z m -9.74425,15.15638 9.55805,9.46883 9.55805,-9.46883 4.40664,4.50004 -9.49599,9.40633 9.49599,9.40633 -4.40664,4.50004 -9.55805,-9.46883 -9.55805,9.46883 -4.40664,-4.50004 9.49599,-9.40633 -9.49599,-9.40633 4.40664,-4.50004 z"
     id="error_white"
     style="fill:#ffffff;fill-opacity:1;stroke:none;display:inline" />
  <path
     d="M 109.01552,261.0005 C 92.992334,261.0005 80,274.08384 80,290.21925 80,306.35466 92.992334,319.438 109.01552,319.438 125.0387,319.438 138,306.35466 138,290.21925 c 0,-6.20224 -1.94046,-11.92618 -5.21348,-16.65625 -0.021,0.0645 0.0265,0.12263 0,0.1875 -1.81651,0.88532 -3.55971,2.09651 -5.21349,3.53125 -1.65377,1.43474 -3.20773,3.09276 -4.68592,4.90625 -1.4782,1.81349 -2.86863,3.75967 -4.15838,5.78125 -1.28975,2.02158 -2.4803,4.12851 -3.56875,6.1875 -2.17691,4.11798 -3.94995,8.1314 -5.24452,11.375 -1.29457,3.2436 -2.11117,5.71489 -2.42054,6.71875 -0.55,-2.11157 -1.30633,-4.42093 -2.17229,-6.75 -0.86595,-2.32907 -1.84618,-4.67597 -2.91707,-6.875 -1.07089,-2.19903 -2.21775,-4.24731 -3.382553,-5.96875 -1.164803,-1.72144 -2.358993,-3.13495 -3.506688,-4.03125 -0.188556,-0.54494 -0.102744,-1.15875 0.155163,-1.78125 0.257908,-0.6225 0.694774,-1.23479 1.210273,-1.8125 0.515499,-0.57772 1.122577,-1.12065 1.706795,-1.53125 0.584218,-0.4106 1.149634,-0.69134 1.6137,-0.8125 0.46406,-0.12116 1.14914,0.30402 1.95505,1.0625 0.80592,0.75848 1.71795,1.83581 2.60674,2.96875 1.77759,2.26589 3.47897,4.76727 4.03425,5.5 0.73932,-2.18086 1.87884,-4.39239 3.32049,-6.59375 1.44165,-2.20136 3.17301,-4.38557 5.08935,-6.40625 1.91635,-2.02068 4.0121,-3.89243 6.1755,-5.53125 2.07412,-1.57119 4.20334,-2.8984 6.29962,-3.9375 -5.26318,-5.38901 -12.56875,-8.75 -20.66773,-8.75 z"
     id="success_color"
     style="fill:#96b439;fill-opacity:1;stroke:none" />
  <path
     d="M 109.01552,174 C 92.99233,174 80,187.08345 80,203.219 c 0,16.13555 12.99233,29.219 29.01552,29.219 C 125.0387,232.438 138,219.35455 138,203.219 138,187.08345 125.0387,174 109.01552,174 z m -0.12413,7.78132 c 1.80469,-0.0433 3.65611,0.13701 4.03424,0.65625 0.66184,0.90884 -0.80495,27.86121 -1.36544,28.31274 -0.6875,0.55386 -4.61908,0.63656 -5.30658,-0.125 -0.43873,-0.48599 -2.00424,-27.28772 -1.17924,-28.18774 0.24063,-0.34616 2.01232,-0.61298 3.81702,-0.65625 z m 0.031,32.78153 c 2.65787,0 4.81005,2.16727 4.81005,4.84379 0,2.67651 -2.15218,4.84379 -4.81005,4.84379 -2.65788,0 -4.81006,-2.16728 -4.81006,-4.84379 0,-2.67652 2.15218,-4.84379 4.81006,-4.84379 z"
     id="warning_color"
     style="fill:#ea650d;fill-opacity:1;stroke:none" />
  <path
     d="m 109,87.03175 c -16.01461,0 -29,13.05209 -29,29.1875 0,16.13541 12.98539,29.21875 29,29.21875 16.01461,0 29,-13.08334 29,-29.21875 0,-16.13541 -12.98539,-29.1875 -29,-29.1875 z m -0.37219,9.96875 c 2.18208,0 3.93903,1.7702 3.93903,3.96875 0,2.19855 -1.75695,3.96875 -3.93903,3.96875 -2.18209,0 -3.97006,-1.7702 -3.97006,-3.96875 0,-2.19855 1.78797,-3.96875 3.97006,-3.96875 z m -2.79145,10.9375 5.70696,0 0,26.71875 -5.70696,0 0,-26.71875 z"
     id="info_color"
     style="fill:#7caad6;fill-opacity:1;stroke:none;display:inline" />
  <path
     d="M 109.01552,0 C 92.99233,0 80,13.08345 80,29.219 80,45.35455 92.99233,58.438 109.01552,58.438 125.0387,58.438 138,45.35455 138,29.219 138,13.08345 125.0387,0 109.01552,0 z m -9.74425,15.15638 9.55805,9.46883 9.55805,-9.46883 4.40664,4.50004 -9.49599,9.40633 9.49599,9.40633 -4.40664,4.50004 -9.55805,-9.46883 -9.55805,9.46883 -4.40664,-4.50004 9.49599,-9.40633 -9.49599,-9.40633 4.40664,-4.50004 z"
     id="error_color"
     style="fill:#d70000;fill-opacity:1;stroke:none;display:inline" />
  <metadata
     id="metadata4221">
    <rdf:RDF>
      <cc:Work
         rdf:about="">
        <dc:title></dc:title>
      </cc:Work>
    </rdf:RDF>
  </metadata>
</svg>
