<svg width="34" height="14" viewBox="0 0 34 14" xmlns="http://www.w3.org/2000/svg"><title>stepindicator-arrow</title><path d="M0 11.568C4.596 6.332 11.495 3.22 18.967 3.744c4.547.318 8.9 1.995 12.485 4.757L29.902.935c-.085-.42.183-.832.603-.918.422-.086.832.184.92.606l2 9.756c.014.07.018.14.013.22-.008.116-.054.23-.155.393-.02.03-.03.06-.055.085-.028.03-.063.042-.168.12-.066.04-.133.067-.24.1l-9.756 2c-.422.087-.832-.184-.92-.605-.084-.42.186-.83.606-.918l8.202-1.68c-3.424-2.79-7.66-4.487-12.094-4.797C11.772 4.8 5.243 7.81.963 12.845L0 11.57z" fill="#7CAAD6" fill-rule="evenodd"/></svg>